<svg width="372" height="106" viewBox="0 0 372 106" fill="none" xmlns="http://www.w3.org/2000/svg">
<g filter="url(#filter0_d_1258_796)">
<mask id="path-1-inside-1_1258_796" fill="white">
<path d="M8.09998 45.5C8.09998 29.7599 20.8599 17 36.6 17H334.6C350.34 17 363.1 29.7599 363.1 45.5V45.5C363.1 61.2401 350.34 74 334.6 74H36.6C20.8599 74 8.09998 61.2401 8.09998 45.5V45.5Z"/>
</mask>
<path d="M8.09998 45.5C8.09998 29.7599 20.8599 17 36.6 17H334.6C350.34 17 363.1 29.7599 363.1 45.5V45.5C363.1 61.2401 350.34 74 334.6 74H36.6C20.8599 74 8.09998 61.2401 8.09998 45.5V45.5Z" fill="black" fill-opacity="0.01" shape-rendering="crispEdges"/>
<path d="M8.09998 45.5M363.1 45.5M363.1 45.5M8.09998 45.5M36.6 17V18H334.6V17V16H36.6V17ZM363.1 45.5M334.6 74V73H36.6V74V75H334.6V74ZM8.09998 45.5M36.6 74V73C21.4121 73 9.09998 60.6878 9.09998 45.5H8.09998H7.09998C7.09998 61.7924 20.3076 75 36.6 75V74ZM363.1 45.5H362.1C362.1 60.6878 349.788 73 334.6 73V74V75C350.892 75 364.1 61.7924 364.1 45.5H363.1ZM334.6 17V18C349.788 18 362.1 30.3122 362.1 45.5H363.1H364.1C364.1 29.2076 350.892 16 334.6 16V17ZM36.6 17V16C20.3076 16 7.09998 29.2076 7.09998 45.5H8.09998H9.09998C9.09998 30.3122 21.4121 18 36.6 18V17Z" fill="white" fill-opacity="0.1" mask="url(#path-1-inside-1_1258_796)"/>
<path d="M46.8004 60H45.9364V57.392H43.2084V60H42.3444V54.288H43.2084V56.656H45.9364V54.288H46.8004V60ZM52.0327 57.84C52.0327 58.1973 51.9847 58.5147 51.8887 58.792C51.7927 59.0693 51.6567 59.304 51.4807 59.496C51.3047 59.688 51.0914 59.8347 50.8407 59.936C50.5901 60.032 50.3074 60.08 49.9927 60.08C49.7047 60.08 49.4381 60.032 49.1927 59.936C48.9474 59.8347 48.7341 59.688 48.5527 59.496C48.3767 59.304 48.2381 59.0693 48.1367 58.792C48.0354 58.5147 47.9847 58.1947 47.9847 57.832C47.9847 57.3573 48.0647 56.9547 48.2247 56.624C48.3901 56.2933 48.6247 56.0427 48.9287 55.872C49.2381 55.696 49.6007 55.608 50.0167 55.608C50.4114 55.608 50.7581 55.696 51.0567 55.872C51.3607 56.0427 51.5981 56.2933 51.7687 56.624C51.9447 56.9547 52.0327 57.36 52.0327 57.84ZM48.8567 57.84C48.8567 58.16 48.8967 58.4373 48.9767 58.672C49.0567 58.9013 49.1821 59.0773 49.3527 59.2C49.5234 59.3227 49.7421 59.384 50.0087 59.384C50.2754 59.384 50.4941 59.3227 50.6647 59.2C50.8354 59.0773 50.9607 58.9013 51.0407 58.672C51.1207 58.4373 51.1607 58.16 51.1607 57.84C51.1607 57.5093 51.1181 57.232 51.0327 57.008C50.9527 56.784 50.8274 56.6133 50.6567 56.496C50.4914 56.3733 50.2727 56.312 50.0007 56.312C49.6007 56.312 49.3101 56.4453 49.1287 56.712C48.9474 56.9787 48.8567 57.3547 48.8567 57.84ZM57.9397 55.608C58.4251 55.608 58.7904 55.7333 59.0357 55.984C59.2811 56.2347 59.4037 56.6373 59.4037 57.192V60H58.5557V57.304C58.5557 56.9733 58.4891 56.7253 58.3557 56.56C58.2277 56.3893 58.0251 56.304 57.7477 56.304C57.3637 56.304 57.0891 56.424 56.9237 56.664C56.7584 56.8987 56.6757 57.24 56.6757 57.688V60H55.8357V57.304C55.8357 57.0853 55.8037 56.9013 55.7397 56.752C55.6811 56.6027 55.5931 56.4907 55.4757 56.416C55.3584 56.3413 55.2064 56.304 55.0197 56.304C54.7531 56.304 54.5424 56.3627 54.3877 56.48C54.2331 56.5973 54.1211 56.7707 54.0517 57C53.9877 57.224 53.9557 57.4987 53.9557 57.824V60H53.1077V55.688H53.7797L53.8997 56.264H53.9477C54.0384 56.1147 54.1477 55.992 54.2757 55.896C54.4091 55.8 54.5557 55.728 54.7157 55.68C54.8757 55.632 55.0411 55.608 55.2117 55.608C55.5371 55.608 55.8117 55.6667 56.0357 55.784C56.2597 55.896 56.4224 56.0693 56.5237 56.304H56.5877C56.7264 56.064 56.9184 55.888 57.1637 55.776C57.4091 55.664 57.6677 55.608 57.9397 55.608ZM62.3975 55.608C62.7761 55.608 63.1015 55.688 63.3735 55.848C63.6455 56.0027 63.8535 56.2267 63.9975 56.52C64.1468 56.8133 64.2215 57.16 64.2215 57.56V58.024H61.3255C61.3361 58.4667 61.4508 58.8053 61.6695 59.04C61.8935 59.2747 62.2055 59.392 62.6055 59.392C62.8828 59.392 63.1281 59.368 63.3415 59.32C63.5601 59.2667 63.7841 59.1893 64.0135 59.088V59.792C63.8001 59.888 63.5815 59.96 63.3575 60.008C63.1388 60.056 62.8775 60.08 62.5735 60.08C62.1575 60.08 61.7895 59.9973 61.4695 59.832C61.1495 59.6667 60.8988 59.4213 60.7175 59.096C60.5415 58.7653 60.4535 58.36 60.4535 57.88C60.4535 57.3947 60.5335 56.984 60.6935 56.648C60.8588 56.312 61.0855 56.056 61.3735 55.88C61.6668 55.6987 62.0081 55.608 62.3975 55.608ZM62.3975 56.264C62.0935 56.264 61.8481 56.3627 61.6615 56.56C61.4801 56.7573 61.3735 57.0373 61.3415 57.4H63.3735C63.3735 57.176 63.3388 56.9787 63.2695 56.808C63.2001 56.6373 63.0935 56.504 62.9495 56.408C62.8055 56.312 62.6215 56.264 62.3975 56.264Z" fill="#9B9B9B"/>
<path d="M97.6979 54.176V55.808H99.6179V56.552H97.6979V58.256H99.8579V59H96.7859V53.432H99.8579V54.176H97.6979ZM102.869 56.768L104.293 59H103.261L102.309 57.504L101.413 59H100.461L101.885 56.832L100.461 54.592H101.493L102.445 56.088L103.341 54.592H104.293L102.869 56.768ZM105.885 55.24C106.04 55.0373 106.251 54.8667 106.517 54.728C106.784 54.5893 107.085 54.52 107.421 54.52C107.805 54.52 108.155 54.616 108.469 54.808C108.789 54.9947 109.04 55.2587 109.221 55.6C109.403 55.9413 109.493 56.3333 109.493 56.776C109.493 57.2187 109.403 57.616 109.221 57.968C109.04 58.3147 108.789 58.5867 108.469 58.784C108.155 58.976 107.805 59.072 107.421 59.072C107.085 59.072 106.787 59.0053 106.525 58.872C106.264 58.7333 106.051 58.5627 105.885 58.36V61.096H104.973V54.592H105.885V55.24ZM108.565 56.776C108.565 56.472 108.501 56.2107 108.373 55.992C108.251 55.768 108.085 55.6 107.877 55.488C107.675 55.3707 107.456 55.312 107.221 55.312C106.992 55.312 106.773 55.3707 106.565 55.488C106.363 55.6053 106.197 55.776 106.069 56C105.947 56.224 105.885 56.488 105.885 56.792C105.885 57.096 105.947 57.3627 106.069 57.592C106.197 57.816 106.363 57.9867 106.565 58.104C106.773 58.2213 106.992 58.28 107.221 58.28C107.456 58.28 107.675 58.2213 107.877 58.104C108.085 57.9813 108.251 57.8053 108.373 57.576C108.501 57.3467 108.565 57.08 108.565 56.776ZM111.307 53.08V59H110.395V53.08H111.307ZM114.417 59.072C114.001 59.072 113.625 58.9787 113.289 58.792C112.953 58.6 112.689 58.3333 112.497 57.992C112.305 57.6453 112.209 57.2453 112.209 56.792C112.209 56.344 112.307 55.9467 112.505 55.6C112.702 55.2533 112.971 54.9867 113.313 54.8C113.654 54.6133 114.035 54.52 114.457 54.52C114.878 54.52 115.259 54.6133 115.601 54.8C115.942 54.9867 116.211 55.2533 116.409 55.6C116.606 55.9467 116.705 56.344 116.705 56.792C116.705 57.24 116.603 57.6373 116.401 57.984C116.198 58.3307 115.921 58.6 115.569 58.792C115.222 58.9787 114.838 59.072 114.417 59.072ZM114.417 58.28C114.651 58.28 114.87 58.224 115.073 58.112C115.281 58 115.449 57.832 115.577 57.608C115.705 57.384 115.769 57.112 115.769 56.792C115.769 56.472 115.707 56.2027 115.585 55.984C115.462 55.76 115.299 55.592 115.097 55.48C114.894 55.368 114.675 55.312 114.441 55.312C114.206 55.312 113.987 55.368 113.785 55.48C113.587 55.592 113.43 55.76 113.313 55.984C113.195 56.2027 113.137 56.472 113.137 56.792C113.137 57.2667 113.257 57.6347 113.497 57.896C113.742 58.152 114.049 58.28 114.417 58.28ZM118.518 55.232C118.652 55.008 118.828 54.8347 119.046 54.712C119.27 54.584 119.534 54.52 119.838 54.52V55.464H119.606C119.249 55.464 118.977 55.5547 118.79 55.736C118.609 55.9173 118.518 56.232 118.518 56.68V59H117.606V54.592H118.518V55.232ZM124.717 56.688C124.717 56.8533 124.706 57.0027 124.685 57.136H121.317C121.343 57.488 121.474 57.7707 121.709 57.984C121.943 58.1973 122.231 58.304 122.573 58.304C123.063 58.304 123.41 58.0987 123.613 57.688H124.597C124.463 58.0933 124.221 58.4267 123.869 58.688C123.522 58.944 123.09 59.072 122.573 59.072C122.151 59.072 121.773 58.9787 121.437 58.792C121.106 58.6 120.845 58.3333 120.653 57.992C120.466 57.6453 120.373 57.2453 120.373 56.792C120.373 56.3387 120.463 55.9413 120.645 55.6C120.831 55.2533 121.09 54.9867 121.421 54.8C121.757 54.6133 122.141 54.52 122.573 54.52C122.989 54.52 123.359 54.6107 123.685 54.792C124.01 54.9733 124.263 55.2293 124.445 55.56C124.626 55.8853 124.717 56.2613 124.717 56.688ZM123.765 56.4C123.759 56.064 123.639 55.7947 123.405 55.592C123.17 55.3893 122.879 55.288 122.533 55.288C122.218 55.288 121.949 55.3893 121.725 55.592C121.501 55.7893 121.367 56.0587 121.325 56.4H123.765Z" fill="#9B9B9B"/>
<path d="M256.081 53.44V59H255.169V53.44H256.081ZM259.502 54.52C259.849 54.52 260.158 54.592 260.43 54.736C260.707 54.88 260.923 55.0933 261.078 55.376C261.233 55.6587 261.31 56 261.31 56.4V59H260.406V56.536C260.406 56.1413 260.307 55.84 260.11 55.632C259.913 55.4187 259.643 55.312 259.302 55.312C258.961 55.312 258.689 55.4187 258.486 55.632C258.289 55.84 258.19 56.1413 258.19 56.536V59H257.278V54.592H258.19V55.096C258.339 54.9147 258.529 54.7733 258.758 54.672C258.993 54.5707 259.241 54.52 259.502 54.52ZM264.321 55.336H263.505V59H262.585V55.336H262.065V54.592H262.585V54.28C262.585 53.7733 262.719 53.4053 262.985 53.176C263.257 52.9413 263.681 52.824 264.257 52.824V53.584C263.98 53.584 263.785 53.6373 263.673 53.744C263.561 53.8453 263.505 54.024 263.505 54.28V54.592H264.321V55.336ZM267.042 59.072C266.626 59.072 266.25 58.9787 265.914 58.792C265.578 58.6 265.314 58.3333 265.122 57.992C264.93 57.6453 264.834 57.2453 264.834 56.792C264.834 56.344 264.932 55.9467 265.13 55.6C265.327 55.2533 265.596 54.9867 265.938 54.8C266.279 54.6133 266.66 54.52 267.082 54.52C267.503 54.52 267.884 54.6133 268.226 54.8C268.567 54.9867 268.836 55.2533 269.034 55.6C269.231 55.9467 269.33 56.344 269.33 56.792C269.33 57.24 269.228 57.6373 269.026 57.984C268.823 58.3307 268.546 58.6 268.194 58.792C267.847 58.9787 267.463 59.072 267.042 59.072ZM267.042 58.28C267.276 58.28 267.495 58.224 267.698 58.112C267.906 58 268.074 57.832 268.202 57.608C268.33 57.384 268.394 57.112 268.394 56.792C268.394 56.472 268.332 56.2027 268.21 55.984C268.087 55.76 267.924 55.592 267.722 55.48C267.519 55.368 267.3 55.312 267.066 55.312C266.831 55.312 266.612 55.368 266.41 55.48C266.212 55.592 266.055 55.76 265.938 55.984C265.82 56.2027 265.762 56.472 265.762 56.792C265.762 57.2667 265.882 57.6347 266.122 57.896C266.367 58.152 266.674 58.28 267.042 58.28Z" fill="#9B9B9B"/>
<path d="M307.717 55.096C307.717 55.3787 307.65 55.6453 307.517 55.896C307.384 56.1467 307.17 56.352 306.877 56.512C306.584 56.6667 306.208 56.744 305.749 56.744H304.741V59H303.829V53.44H305.749C306.176 53.44 306.536 53.5147 306.829 53.664C307.128 53.808 307.349 54.0053 307.493 54.256C307.642 54.5067 307.717 54.7867 307.717 55.096ZM305.749 56C306.096 56 306.354 55.9227 306.525 55.768C306.696 55.608 306.781 55.384 306.781 55.096C306.781 54.488 306.437 54.184 305.749 54.184H304.741V56H305.749ZM309.499 55.232C309.632 55.008 309.808 54.8347 310.027 54.712C310.251 54.584 310.515 54.52 310.819 54.52V55.464H310.587C310.229 55.464 309.957 55.5547 309.771 55.736C309.589 55.9173 309.499 56.232 309.499 56.68V59H308.587V54.592H309.499V55.232ZM313.569 59.072C313.153 59.072 312.777 58.9787 312.441 58.792C312.105 58.6 311.841 58.3333 311.649 57.992C311.457 57.6453 311.361 57.2453 311.361 56.792C311.361 56.344 311.46 55.9467 311.657 55.6C311.854 55.2533 312.124 54.9867 312.465 54.8C312.806 54.6133 313.188 54.52 313.609 54.52C314.03 54.52 314.412 54.6133 314.753 54.8C315.094 54.9867 315.364 55.2533 315.561 55.6C315.758 55.9467 315.857 56.344 315.857 56.792C315.857 57.24 315.756 57.6373 315.553 57.984C315.35 58.3307 315.073 58.6 314.721 58.792C314.374 58.9787 313.99 59.072 313.569 59.072ZM313.569 58.28C313.804 58.28 314.022 58.224 314.225 58.112C314.433 58 314.601 57.832 314.729 57.608C314.857 57.384 314.921 57.112 314.921 56.792C314.921 56.472 314.86 56.2027 314.737 55.984C314.614 55.76 314.452 55.592 314.249 55.48C314.046 55.368 313.828 55.312 313.593 55.312C313.358 55.312 313.14 55.368 312.937 55.48C312.74 55.592 312.582 55.76 312.465 55.984C312.348 56.2027 312.289 56.472 312.289 56.792C312.289 57.2667 312.409 57.6347 312.649 57.896C312.894 58.152 313.201 58.28 313.569 58.28ZM318.607 55.336H317.791V59H316.871V55.336H316.351V54.592H316.871V54.28C316.871 53.7733 317.004 53.4053 317.271 53.176C317.543 52.9413 317.967 52.824 318.543 52.824V53.584C318.265 53.584 318.071 53.6373 317.959 53.744C317.847 53.8453 317.791 54.024 317.791 54.28V54.592H318.607V55.336ZM319.879 54.008C319.713 54.008 319.575 53.952 319.463 53.84C319.351 53.728 319.295 53.5893 319.295 53.424C319.295 53.2587 319.351 53.12 319.463 53.008C319.575 52.896 319.713 52.84 319.879 52.84C320.039 52.84 320.175 52.896 320.287 53.008C320.399 53.12 320.455 53.2587 320.455 53.424C320.455 53.5893 320.399 53.728 320.287 53.84C320.175 53.952 320.039 54.008 319.879 54.008ZM320.327 54.592V59H319.415V54.592H320.327ZM322.436 53.08V59H321.524V53.08H322.436ZM327.674 56.688C327.674 56.8533 327.663 57.0027 327.642 57.136H324.274C324.3 57.488 324.431 57.7707 324.666 57.984C324.9 58.1973 325.188 58.304 325.53 58.304C326.02 58.304 326.367 58.0987 326.57 57.688H327.554C327.42 58.0933 327.178 58.4267 326.826 58.688C326.479 58.944 326.047 59.072 325.53 59.072C325.108 59.072 324.73 58.9787 324.394 58.792C324.063 58.6 323.802 58.3333 323.61 57.992C323.423 57.6453 323.33 57.2453 323.33 56.792C323.33 56.3387 323.42 55.9413 323.602 55.6C323.788 55.2533 324.047 54.9867 324.378 54.8C324.714 54.6133 325.098 54.52 325.53 54.52C325.946 54.52 326.316 54.6107 326.642 54.792C326.967 54.9733 327.22 55.2293 327.402 55.56C327.583 55.8853 327.674 56.2613 327.674 56.688ZM326.722 56.4C326.716 56.064 326.596 55.7947 326.362 55.592C326.127 55.3893 325.836 55.288 325.49 55.288C325.175 55.288 324.906 55.3893 324.682 55.592C324.458 55.7893 324.324 56.0587 324.282 56.4H326.722Z" fill="#9B9B9B"/>
<path d="M53.1 47L51.795 45.7956C50.28 44.3906 49.0275 43.1785 48.0375 42.1594C47.0475 41.1403 46.26 40.2255 45.675 39.4149C45.09 38.6042 44.6812 37.8592 44.4487 37.1798C44.2162 36.5005 44.1 35.8056 44.1 35.0954C44.1 33.644 44.5725 32.4319 45.5175 31.4591C46.4625 30.4864 47.64 30 49.05 30C49.83 30 50.5725 30.1698 51.2775 30.5095C51.9825 30.8492 52.59 31.3279 53.1 31.9455C53.61 31.3279 54.2175 30.8492 54.9225 30.5095C55.6275 30.1698 56.37 30 57.15 30C58.56 30 59.7375 30.4864 60.6825 31.4591C61.6275 32.4319 62.1 33.644 62.1 35.0954C62.1 35.8056 61.9837 36.5005 61.7512 37.1798C61.5187 37.8592 61.11 38.6042 60.525 39.4149C59.94 40.2255 59.1525 41.1403 58.1625 42.1594C57.1725 43.1785 55.92 44.3906 54.405 45.7956L53.1 47ZM53.1 44.4986C54.54 43.1708 55.725 42.032 56.655 41.0824C57.585 40.1328 58.32 39.3068 58.86 38.6042C59.4 37.9017 59.775 37.2763 59.985 36.7282C60.195 36.1801 60.3 35.6358 60.3 35.0954C60.3 34.1689 60 33.3969 59.4 32.7793C58.8 32.1617 58.05 31.8529 57.15 31.8529C56.445 31.8529 55.7925 32.0574 55.1925 32.4666C54.5925 32.8758 54.18 33.3969 53.955 34.03H52.245C52.02 33.3969 51.6075 32.8758 51.0075 32.4666C50.4075 32.0574 49.755 31.8529 49.05 31.8529C48.15 31.8529 47.4 32.1617 46.8 32.7793C46.2 33.3969 45.9 34.1689 45.9 35.0954C45.9 35.6358 46.005 36.1801 46.215 36.7282C46.425 37.2763 46.8 37.9017 47.34 38.6042C47.88 39.3068 48.615 40.1328 49.545 41.0824C50.475 42.032 51.66 43.1708 53.1 44.4986Z" fill="#9B9B9B"/>
<path d="M262.1 35.4166C262.36 35.4166 262.577 35.3287 262.753 35.153C262.929 34.9773 263.017 34.7596 263.017 34.4999C263.017 34.2402 262.929 34.0225 262.753 33.8468C262.577 33.6711 262.36 33.5833 262.1 33.5833C261.84 33.5833 261.622 33.6711 261.447 33.8468C261.271 34.0225 261.183 34.2402 261.183 34.4999C261.183 34.7596 261.271 34.9773 261.447 35.153C261.622 35.3287 261.84 35.4166 262.1 35.4166ZM261.183 42.7499H263.017V37.2499H261.183V42.7499ZM252.933 49.1666V32.6666C252.933 32.1624 253.113 31.7308 253.472 31.3718C253.831 31.0128 254.262 30.8333 254.767 30.8333H269.433C269.937 30.8333 270.369 31.0128 270.728 31.3718C271.087 31.7308 271.267 32.1624 271.267 32.6666V43.6666C271.267 44.1708 271.087 44.6023 270.728 44.9614C270.369 45.3204 269.937 45.4999 269.433 45.4999H256.6L252.933 49.1666ZM255.821 43.6666H269.433V32.6666H254.767V44.6978L255.821 43.6666Z" fill="#9B9B9B"/>
<path d="M116.7 48L110.4 41.7C109.9 42.1 109.325 42.4167 108.675 42.65C108.025 42.8833 107.333 43 106.6 43C104.783 43 103.246 42.3708 101.987 41.1125C100.729 39.8542 100.1 38.3167 100.1 36.5C100.1 34.6833 100.729 33.1458 101.987 31.8875C103.246 30.6292 104.783 30 106.6 30C108.417 30 109.954 30.6292 111.212 31.8875C112.471 33.1458 113.1 34.6833 113.1 36.5C113.1 37.2333 112.983 37.925 112.75 38.575C112.517 39.225 112.2 39.8 111.8 40.3L118.1 46.6L116.7 48ZM106.6 41C107.85 41 108.912 40.5625 109.787 39.6875C110.662 38.8125 111.1 37.75 111.1 36.5C111.1 35.25 110.662 34.1875 109.787 33.3125C108.912 32.4375 107.85 32 106.6 32C105.35 32 104.287 32.4375 103.412 33.3125C102.537 34.1875 102.1 35.25 102.1 36.5C102.1 37.75 102.537 38.8125 103.412 39.6875C104.287 40.5625 105.35 41 106.6 41Z" fill="#9B9B9B"/>
<path d="M309.565 43.59C310.33 43.005 311.185 42.5438 312.13 42.2063C313.075 41.8688 314.065 41.7 315.1 41.7C316.135 41.7 317.125 41.8688 318.07 42.2063C319.015 42.5438 319.87 43.005 320.635 43.59C321.16 42.975 321.569 42.2775 321.861 41.4975C322.154 40.7175 322.3 39.885 322.3 39C322.3 37.005 321.599 35.3062 320.196 33.9037C318.794 32.5012 317.095 31.8 315.1 31.8C313.105 31.8 311.406 32.5012 310.004 33.9037C308.601 35.3062 307.9 37.005 307.9 39C307.9 39.885 308.046 40.7175 308.339 41.4975C308.631 42.2775 309.04 42.975 309.565 43.59ZM312.861 38.9887C312.254 38.3812 311.95 37.635 311.95 36.75C311.95 35.865 312.254 35.1188 312.861 34.5113C313.469 33.9038 314.215 33.6 315.1 33.6C315.985 33.6 316.731 33.9038 317.339 34.5113C317.946 35.1188 318.25 35.865 318.25 36.75C318.25 37.635 317.946 38.3812 317.339 38.9887C316.731 39.5962 315.985 39.9 315.1 39.9C314.215 39.9 313.469 39.5962 312.861 38.9887ZM315.1 48C313.855 48 312.685 47.7637 311.59 47.2912C310.495 46.8187 309.542 46.1775 308.732 45.3675C307.922 44.5575 307.281 43.605 306.809 42.51C306.336 41.415 306.1 40.245 306.1 39C306.1 37.755 306.336 36.585 306.809 35.49C307.281 34.395 307.922 33.4425 308.732 32.6325C309.542 31.8225 310.495 31.1812 311.59 30.7087C312.685 30.2362 313.855 30 315.1 30C316.345 30 317.515 30.2362 318.61 30.7087C319.705 31.1812 320.657 31.8225 321.467 32.6325C322.277 33.4425 322.919 34.395 323.391 35.49C323.864 36.585 324.1 37.755 324.1 39C324.1 40.245 323.864 41.415 323.391 42.51C322.919 43.605 322.277 44.5575 321.467 45.3675C320.657 46.1775 319.705 46.8187 318.61 47.2912C317.515 47.7637 316.345 48 315.1 48ZM317.35 45.8513C318.055 45.6188 318.7 45.285 319.285 44.85C318.7 44.415 318.055 44.0813 317.35 43.8488C316.645 43.6163 315.895 43.5 315.1 43.5C314.305 43.5 313.555 43.6163 312.85 43.8488C312.145 44.0813 311.5 44.415 310.915 44.85C311.5 45.285 312.145 45.6188 312.85 45.8513C313.555 46.0838 314.305 46.2 315.1 46.2C315.895 46.2 316.645 46.0838 317.35 45.8513ZM316.067 37.7175C316.322 37.4625 316.45 37.14 316.45 36.75C316.45 36.36 316.322 36.0375 316.067 35.7825C315.812 35.5275 315.49 35.4 315.1 35.4C314.71 35.4 314.387 35.5275 314.132 35.7825C313.877 36.0375 313.75 36.36 313.75 36.75C313.75 37.14 313.877 37.4625 314.132 37.7175C314.387 37.9725 314.71 38.1 315.1 38.1C315.49 38.1 315.812 37.9725 316.067 37.7175Z" fill="#9B9B9B"/>
</g>
<g filter="url(#filter1_d_1258_796)">
<path d="M150.1 45C150.1 25.67 165.77 10 185.1 10V10C204.43 10 220.1 25.67 220.1 45V45C220.1 64.33 204.43 80 185.1 80V80C165.77 80 150.1 64.33 150.1 45V45Z" fill="#008C69" shape-rendering="crispEdges"/>
<path d="M170.1 33.5V26H177.6V29H173.1V33.5H170.1ZM170.1 56V48.5H173.1V53H177.6V56H170.1ZM192.6 56V53H197.1V48.5H200.1V56H192.6ZM197.1 33.5V29H192.6V26H200.1V33.5H197.1ZM193.35 49.25H195.6V51.5H193.35V49.25ZM193.35 44.75H195.6V47H193.35V44.75ZM191.1 47H193.35V49.25H191.1V47ZM188.85 49.25H191.1V51.5H188.85V49.25ZM186.6 47H188.85V49.25H186.6V47ZM191.1 42.5H193.35V44.75H191.1V42.5ZM188.85 44.75H191.1V47H188.85V44.75ZM186.6 42.5H188.85V44.75H186.6V42.5ZM195.6 30.5V39.5H186.6V30.5H195.6ZM183.6 42.5V51.5H174.6V42.5H183.6ZM183.6 30.5V39.5H174.6V30.5H183.6ZM181.35 49.25V44.75H176.85V49.25H181.35ZM181.35 37.25V32.75H176.85V37.25H181.35ZM193.35 37.25V32.75H188.85V37.25H193.35Z" fill="#5CB19D"/>
<path d="M180.225 63.096C180.225 63.3787 180.158 63.6453 180.025 63.896C179.891 64.1467 179.678 64.352 179.385 64.512C179.091 64.6667 178.715 64.744 178.257 64.744H177.249V67H176.337V61.44H178.257C178.683 61.44 179.043 61.5147 179.337 61.664C179.635 61.808 179.857 62.0053 180.001 62.256C180.15 62.5067 180.225 62.7867 180.225 63.096ZM178.257 64C178.603 64 178.862 63.9227 179.033 63.768C179.203 63.608 179.289 63.384 179.289 63.096C179.289 62.488 178.945 62.184 178.257 62.184H177.249V64H178.257ZM180.791 64.776C180.791 64.3333 180.881 63.9413 181.063 63.6C181.249 63.2587 181.5 62.9947 181.815 62.808C182.135 62.616 182.487 62.52 182.871 62.52C183.217 62.52 183.519 62.5893 183.775 62.728C184.036 62.8613 184.244 63.0293 184.399 63.232V62.592H185.319V67H184.399V66.344C184.244 66.552 184.033 66.7253 183.767 66.864C183.5 67.0027 183.196 67.072 182.855 67.072C182.476 67.072 182.129 66.976 181.815 66.784C181.5 66.5867 181.249 66.3147 181.063 65.968C180.881 65.616 180.791 65.2187 180.791 64.776ZM184.399 64.792C184.399 64.488 184.335 64.224 184.207 64C184.084 63.776 183.921 63.6053 183.719 63.488C183.516 63.3707 183.297 63.312 183.063 63.312C182.828 63.312 182.609 63.3707 182.407 63.488C182.204 63.6 182.039 63.768 181.911 63.992C181.788 64.2107 181.727 64.472 181.727 64.776C181.727 65.08 181.788 65.3467 181.911 65.576C182.039 65.8053 182.204 65.9813 182.407 66.104C182.615 66.2213 182.833 66.28 183.063 66.28C183.297 66.28 183.516 66.2213 183.719 66.104C183.921 65.9867 184.084 65.816 184.207 65.592C184.335 65.3627 184.399 65.096 184.399 64.792ZM188.116 67.072C187.77 67.072 187.458 67.0107 187.18 66.888C186.908 66.76 186.692 66.5893 186.532 66.376C186.372 66.1573 186.287 65.9147 186.276 65.648H187.22C187.236 65.8347 187.324 65.992 187.484 66.12C187.65 66.2427 187.855 66.304 188.1 66.304C188.356 66.304 188.554 66.256 188.692 66.16C188.836 66.0587 188.908 65.9307 188.908 65.776C188.908 65.6107 188.828 65.488 188.668 65.408C188.514 65.328 188.266 65.24 187.924 65.144C187.594 65.0533 187.324 64.9653 187.116 64.88C186.908 64.7947 186.727 64.664 186.572 64.488C186.423 64.312 186.348 64.08 186.348 63.792C186.348 63.5573 186.418 63.344 186.556 63.152C186.695 62.9547 186.892 62.8 187.148 62.688C187.41 62.576 187.708 62.52 188.044 62.52C188.546 62.52 188.948 62.648 189.252 62.904C189.562 63.1547 189.727 63.4987 189.748 63.936H188.836C188.82 63.7387 188.74 63.5813 188.596 63.464C188.452 63.3467 188.258 63.288 188.012 63.288C187.772 63.288 187.588 63.3333 187.46 63.424C187.332 63.5147 187.268 63.6347 187.268 63.784C187.268 63.9013 187.311 64 187.396 64.08C187.482 64.16 187.586 64.224 187.708 64.272C187.831 64.3147 188.012 64.3707 188.252 64.44C188.572 64.5253 188.834 64.6133 189.036 64.704C189.244 64.7893 189.423 64.9173 189.572 65.088C189.722 65.2587 189.799 65.4853 189.804 65.768C189.804 66.0187 189.735 66.2427 189.596 66.44C189.458 66.6373 189.26 66.792 189.004 66.904C188.754 67.016 188.458 67.072 188.116 67.072ZM192.39 67.072C192.043 67.072 191.731 67.0107 191.454 66.888C191.182 66.76 190.966 66.5893 190.806 66.376C190.646 66.1573 190.56 65.9147 190.55 65.648H191.494C191.51 65.8347 191.598 65.992 191.758 66.12C191.923 66.2427 192.128 66.304 192.374 66.304C192.63 66.304 192.827 66.256 192.966 66.16C193.11 66.0587 193.182 65.9307 193.182 65.776C193.182 65.6107 193.102 65.488 192.942 65.408C192.787 65.328 192.539 65.24 192.198 65.144C191.867 65.0533 191.598 64.9653 191.39 64.88C191.182 64.7947 191 64.664 190.846 64.488C190.696 64.312 190.622 64.08 190.622 63.792C190.622 63.5573 190.691 63.344 190.83 63.152C190.968 62.9547 191.166 62.8 191.422 62.688C191.683 62.576 191.982 62.52 192.318 62.52C192.819 62.52 193.222 62.648 193.526 62.904C193.835 63.1547 194 63.4987 194.022 63.936H193.11C193.094 63.7387 193.014 63.5813 192.87 63.464C192.726 63.3467 192.531 63.288 192.286 63.288C192.046 63.288 191.862 63.3333 191.734 63.424C191.606 63.5147 191.542 63.6347 191.542 63.784C191.542 63.9013 191.584 64 191.67 64.08C191.755 64.16 191.859 64.224 191.982 64.272C192.104 64.3147 192.286 64.3707 192.526 64.44C192.846 64.5253 193.107 64.6133 193.31 64.704C193.518 64.7893 193.696 64.9173 193.846 65.088C193.995 65.2587 194.072 65.4853 194.078 65.768C194.078 66.0187 194.008 66.2427 193.87 66.44C193.731 66.6373 193.534 66.792 193.278 66.904C193.027 67.016 192.731 67.072 192.39 67.072Z" fill="#5CB19D"/>
</g>
<defs>
<filter id="filter0_d_1258_796" x="-2.47955e-05" y="10.9" width="371.2" height="73.2" filterUnits="userSpaceOnUse" color-interpolation-filters="sRGB">
<feFlood flood-opacity="0" result="BackgroundImageFix"/>
<feColorMatrix in="SourceAlpha" type="matrix" values="0 0 0 0 0 0 0 0 0 0 0 0 0 0 0 0 0 0 127 0" result="hardAlpha"/>
<feOffset dy="2"/>
<feGaussianBlur stdDeviation="4.05"/>
<feComposite in2="hardAlpha" operator="out"/>
<feColorMatrix type="matrix" values="0 0 0 0 0 0 0 0 0 0 0 0 0 0 0 0 0 0 0.32 0"/>
<feBlend mode="normal" in2="BackgroundImageFix" result="effect1_dropShadow_1258_796"/>
<feBlend mode="normal" in="BackgroundImageFix" in2="effect1_dropShadow_1258_796" result="BackgroundImageFix"/>
<feBlend mode="normal" in="SourceGraphic" in2="BackgroundImageFix" result="shape"/>
</filter>
<filter id="filter1_d_1258_796" x="132.1" y="0" width="106" height="106" filterUnits="userSpaceOnUse" color-interpolation-filters="sRGB">
<feFlood flood-opacity="0" result="BackgroundImageFix"/>
<feColorMatrix in="SourceAlpha" type="matrix" values="0 0 0 0 0 0 0 0 0 0 0 0 0 0 0 0 0 0 127 0" result="hardAlpha"/>
<feOffset dy="8"/>
<feGaussianBlur stdDeviation="9"/>
<feComposite in2="hardAlpha" operator="out"/>
<feColorMatrix type="matrix" values="0 0 0 0 0 0 0 0 0 0 0 0 0 0 0 0 0 0 0.28 0"/>
<feBlend mode="normal" in2="BackgroundImageFix" result="effect1_dropShadow_1258_796"/>
<feBlend mode="normal" in="BackgroundImageFix" in2="effect1_dropShadow_1258_796" result="BackgroundImageFix"/>
<feBlend mode="normal" in="SourceGraphic" in2="BackgroundImageFix" result="shape"/>
</filter>
</defs>
</svg>
