<svg width="393" height="852" viewBox="0 0 393 852" fill="none" xmlns="http://www.w3.org/2000/svg">
<g clip-path="url(#clip0_1217_2285)">
<rect width="393" height="852" fill="white"/>
<path d="M41.225 25.635C41.305 26.075 41.485 26.415 41.765 26.655C42.055 26.885 42.44 27 42.92 27C43.54 27 43.99 26.745 44.27 26.235C44.55 25.715 44.69 24.845 44.69 23.625C44.46 23.945 44.135 24.195 43.715 24.375C43.305 24.555 42.86 24.645 42.38 24.645C41.74 24.645 41.16 24.515 40.64 24.255C40.13 23.985 39.725 23.59 39.425 23.07C39.125 22.54 38.975 21.9 38.975 21.15C38.975 20.04 39.305 19.16 39.965 18.51C40.625 17.85 41.525 17.52 42.665 17.52C44.085 17.52 45.085 17.975 45.665 18.885C46.255 19.795 46.55 21.165 46.55 22.995C46.55 24.295 46.435 25.36 46.205 26.19C45.985 27.02 45.6 27.65 45.05 28.08C44.51 28.51 43.77 28.725 42.83 28.725C42.09 28.725 41.46 28.585 40.94 28.305C40.42 28.015 40.02 27.64 39.74 27.18C39.47 26.71 39.315 26.195 39.275 25.635H41.225ZM42.815 22.935C43.335 22.935 43.745 22.775 44.045 22.455C44.345 22.135 44.495 21.705 44.495 21.165C44.495 20.575 44.335 20.12 44.015 19.8C43.705 19.47 43.28 19.305 42.74 19.305C42.2 19.305 41.77 19.475 41.45 19.815C41.14 20.145 40.985 20.585 40.985 21.135C40.985 21.665 41.135 22.1 41.435 22.44C41.745 22.77 42.205 22.935 42.815 22.935ZM49.3546 28.815C48.9746 28.815 48.6596 28.7 48.4096 28.47C48.1696 28.23 48.0496 27.935 48.0496 27.585C48.0496 27.235 48.1696 26.945 48.4096 26.715C48.6596 26.475 48.9746 26.355 49.3546 26.355C49.7246 26.355 50.0296 26.475 50.2696 26.715C50.5096 26.945 50.6296 27.235 50.6296 27.585C50.6296 27.935 50.5096 28.23 50.2696 28.47C50.0296 28.7 49.7246 28.815 49.3546 28.815ZM49.3546 22.605C48.9746 22.605 48.6596 22.49 48.4096 22.26C48.1696 22.02 48.0496 21.725 48.0496 21.375C48.0496 21.025 48.1696 20.735 48.4096 20.505C48.6596 20.265 48.9746 20.145 49.3546 20.145C49.7246 20.145 50.0296 20.265 50.2696 20.505C50.5096 20.735 50.6296 21.025 50.6296 21.375C50.6296 21.725 50.5096 22.02 50.2696 22.26C50.0296 22.49 49.7246 22.605 49.3546 22.605ZM52.0351 26.58V24.93L56.9401 17.91H59.3851V24.75H60.7051V26.58H59.3851V28.71H57.2851V26.58H52.0351ZM57.4201 20.16L54.3451 24.75H57.4201V20.16ZM61.7871 19.71V17.775H65.4021V28.71H63.2421V19.71H61.7871Z" fill="black"/>
<g clip-path="url(#clip1_1217_2285)">
<path d="M307.81 25.5H305.81C305.533 25.5 305.31 25.7239 305.31 26V29C305.31 29.2761 305.533 29.5 305.81 29.5H307.81C308.086 29.5 308.31 29.2761 308.31 29V26C308.31 25.7239 308.086 25.5 307.81 25.5Z" fill="black"/>
<path d="M312.31 22.5H310.31C310.033 22.5 309.81 22.7239 309.81 23V29C309.81 29.2761 310.033 29.5 310.31 29.5H312.31C312.586 29.5 312.81 29.2761 312.81 29V23C312.81 22.7239 312.586 22.5 312.31 22.5Z" fill="black"/>
<path d="M316.81 19.5H314.81C314.533 19.5 314.31 19.7239 314.31 20V29C314.31 29.2761 314.533 29.5 314.81 29.5H316.81C317.086 29.5 317.31 29.2761 317.31 29V20C317.31 19.7239 317.086 19.5 316.81 19.5Z" fill="black"/>
<path d="M321.31 17.5H319.31C319.033 17.5 318.81 17.7239 318.81 18V29C318.81 29.2761 319.033 29.5 319.31 29.5H321.31C321.586 29.5 321.81 29.2761 321.81 29V18C321.81 17.7239 321.586 17.5 321.31 17.5Z" fill="black"/>
</g>
<g clip-path="url(#clip2_1217_2285)">
<path d="M336.31 19.9C333.91 19.9 331.71 20.9 330.11 22.5L328.31 20.7C330.51 18.7 333.31 17.5 336.31 17.5C339.31 17.5 342.11 18.7 344.31 20.7L342.51 22.5C340.91 20.9 338.71 19.9 336.31 19.9ZM336.31 23.9C334.91 23.9 333.71 24.5 332.71 25.3L330.91 23.3C332.31 22.1 334.21 21.5 336.31 21.5C338.41 21.5 340.31 22.1 341.71 23.3L339.91 25.3C338.91 24.5 337.71 23.9 336.31 23.9ZM336.31 27.9C335.51 27.9 334.91 27.3 334.91 26.5C334.91 25.7 335.51 25.1 336.31 25.1C337.11 25.1 337.71 25.7 337.71 26.5C337.71 27.3 337.11 27.9 336.31 27.9Z" fill="black"/>
</g>
<g clip-path="url(#clip3_1217_2285)">
<path d="M369.31 18.5H352.31C351.205 18.5 350.31 19.3954 350.31 20.5V26.5C350.31 27.6046 351.205 28.5 352.31 28.5H369.31C370.414 28.5 371.31 27.6046 371.31 26.5V20.5C371.31 19.3954 370.414 18.5 369.31 18.5Z" stroke="black"/>
<path d="M373.81 21.5H372.81C372.533 21.5 372.31 21.7239 372.31 22V25C372.31 25.2761 372.533 25.5 372.81 25.5H373.81C374.086 25.5 374.31 25.2761 374.31 25V22C374.31 21.7239 374.086 21.5 373.81 21.5Z" fill="black"/>
<path d="M366.81 20H352.81C352.257 20 351.81 20.4477 351.81 21V26C351.81 26.5523 352.257 27 352.81 27H366.81C367.362 27 367.81 26.5523 367.81 26V21C367.81 20.4477 367.362 20 366.81 20Z" fill="black"/>
</g>
<path d="M198.948 329.047C199.852 328.874 200.799 329.575 201.422 330.131C201.584 330.272 231.14 358.917 232.829 360.505C233.007 360.533 264.15 330.276 264.311 330.131C265.894 328.712 267.647 328.362 267.982 330.905V389.536C267.753 391.616 266.153 393.296 264.031 393.804C243.28 394.01 222.449 394.01 201.698 393.804C199.564 393.272 197.904 391.568 197.747 389.44V330.905C197.811 330.228 198.155 329.2 198.944 329.047H198.948Z" fill="#00A57A"/>
<path d="M126.752 393.023C125.823 392.124 126.2 390.637 126.697 389.613C136.487 370.955 145.636 351.99 155.43 333.335C155.982 332.283 157.255 329.37 158.464 329.067C160.492 328.564 161.133 331.014 161.914 332.271C171.729 351.611 181.77 370.858 191.538 390.214C192.141 392.241 191.521 393.748 189.158 393.929H129.51C128.84 393.929 128.165 393.812 127.558 393.538C127.244 393.397 126.96 393.22 126.752 393.023Z" fill="#00A57A"/>
<path d="M119.942 433.801H132.066L140.405 454.067H140.826L149.165 433.801H161.289V469.581H151.758V448.896H151.478L143.489 469.301H137.742L129.753 448.756H129.473V469.581H119.942V433.801Z" fill="#00A57A"/>
<path d="M187.141 433.801H196.882V456.723C196.882 459.448 196.228 461.806 194.92 463.798C193.623 465.778 191.813 467.31 189.488 468.393C187.164 469.464 184.466 470 181.394 470C178.299 470 175.589 469.464 173.265 468.393C170.94 467.31 169.13 465.778 167.833 463.798C166.548 461.806 165.906 459.448 165.906 456.723V433.801H175.647V455.884C175.647 456.99 175.893 457.98 176.383 458.854C176.874 459.716 177.551 460.391 178.415 460.88C179.292 461.37 180.284 461.614 181.394 461.614C182.515 461.614 183.508 461.37 184.372 460.88C185.237 460.391 185.914 459.716 186.405 458.854C186.895 457.98 187.141 456.99 187.141 455.884V433.801Z" fill="#00A57A"/>
<path d="M220.854 444.982C220.761 443.818 220.323 442.909 219.54 442.257C218.769 441.605 217.595 441.279 216.018 441.279C215.014 441.279 214.19 441.401 213.548 441.646C212.917 441.879 212.45 442.199 212.146 442.606C211.843 443.014 211.685 443.48 211.673 444.004C211.65 444.435 211.726 444.825 211.901 445.175C212.088 445.512 212.38 445.821 212.777 446.101C213.174 446.368 213.682 446.613 214.301 446.834C214.92 447.056 215.656 447.254 216.509 447.428L219.452 448.057C221.438 448.476 223.137 449.03 224.551 449.717C225.964 450.404 227.12 451.214 228.02 452.145C228.919 453.065 229.579 454.102 230 455.255C230.432 456.408 230.654 457.666 230.665 459.029C230.654 461.381 230.064 463.373 228.896 465.003C227.728 466.634 226.057 467.874 223.885 468.725C221.724 469.575 219.125 470 216.088 470C212.97 470 210.248 469.54 207.924 468.62C205.611 467.7 203.813 466.285 202.528 464.375C201.255 462.453 200.612 459.995 200.601 457.002H209.851C209.91 458.097 210.184 459.017 210.675 459.762C211.165 460.508 211.854 461.073 212.742 461.457C213.641 461.841 214.71 462.034 215.948 462.034C216.988 462.034 217.858 461.905 218.559 461.649C219.26 461.393 219.791 461.038 220.153 460.583C220.515 460.129 220.702 459.611 220.714 459.029C220.702 458.481 220.521 458.004 220.171 457.596C219.832 457.177 219.271 456.804 218.489 456.478C217.706 456.14 216.649 455.826 215.318 455.535L211.743 454.766C208.566 454.079 206.061 452.931 204.227 451.324C202.405 449.705 201.5 447.498 201.512 444.703C201.5 442.432 202.107 440.446 203.334 438.745C204.572 437.033 206.283 435.7 208.467 434.745C210.663 433.79 213.18 433.312 216.018 433.312C218.915 433.312 221.42 433.796 223.535 434.762C225.649 435.729 227.278 437.092 228.423 438.85C229.579 440.597 230.163 442.641 230.175 444.982H220.854Z" fill="#00A57A"/>
<path d="M234.371 469.581V433.801H260.231V441.628H244.112V447.778H258.899V455.604H244.112V461.754H260.161V469.581H234.371Z" fill="#00A57A"/>
<path d="M274.803 433.801V469.581H265.062V433.801H274.803Z" fill="#00A57A"/>
<path d="M122.024 426.974H117.87L122.551 412.834H127.813L132.493 426.974H128.339L125.237 416.728H125.126L122.024 426.974ZM121.249 421.395H129.059V424.268H121.249V421.395Z" fill="#00A57A"/>
<path d="M133.859 426.974V412.834H140.007C141.087 412.834 141.994 412.979 142.728 413.269C143.467 413.559 144.023 413.969 144.397 414.498C144.775 415.028 144.964 415.651 144.964 416.369C144.964 416.889 144.849 417.363 144.618 417.792C144.392 418.22 144.074 418.579 143.663 418.869C143.252 419.154 142.772 419.352 142.223 419.462V419.6C142.832 419.623 143.386 419.778 143.884 420.063C144.383 420.344 144.78 420.733 145.075 421.23C145.371 421.722 145.518 422.302 145.518 422.97C145.518 423.743 145.315 424.431 144.909 425.034C144.508 425.637 143.935 426.111 143.192 426.456C142.449 426.801 141.563 426.974 140.533 426.974H133.859ZM137.708 423.909H139.509C140.155 423.909 140.639 423.789 140.963 423.549C141.286 423.306 141.447 422.947 141.447 422.472C141.447 422.141 141.371 421.86 141.219 421.63C141.066 421.4 140.849 421.225 140.568 421.105C140.291 420.986 139.956 420.926 139.564 420.926H137.708V423.909ZM137.708 418.551H139.287C139.624 418.551 139.922 418.498 140.18 418.392C140.439 418.286 140.639 418.134 140.783 417.937C140.93 417.734 141.004 417.488 141.004 417.198C141.004 416.761 140.847 416.427 140.533 416.197C140.219 415.962 139.822 415.845 139.342 415.845H137.708V418.551Z" fill="#00A57A"/>
<path d="M146.882 426.974V412.834H153.031C154.111 412.834 155.018 412.979 155.752 413.269C156.49 413.559 157.046 413.969 157.42 414.498C157.799 415.028 157.988 415.651 157.988 416.369C157.988 416.889 157.873 417.363 157.642 417.792C157.416 418.22 157.097 418.579 156.686 418.869C156.276 419.154 155.796 419.352 155.246 419.462V419.6C155.856 419.623 156.409 419.778 156.908 420.063C157.406 420.344 157.803 420.733 158.099 421.23C158.394 421.722 158.542 422.302 158.542 422.97C158.542 423.743 158.339 424.431 157.933 425.034C157.531 425.637 156.959 426.111 156.216 426.456C155.472 426.801 154.586 426.974 153.557 426.974H146.882ZM150.732 423.909H152.532C153.178 423.909 153.663 423.789 153.986 423.549C154.309 423.306 154.471 422.947 154.471 422.472C154.471 422.141 154.395 421.86 154.242 421.63C154.09 421.4 153.873 421.225 153.591 421.105C153.315 420.986 152.98 420.926 152.588 420.926H150.732V423.909ZM150.732 418.551H152.311C152.648 418.551 152.945 418.498 153.204 418.392C153.462 418.286 153.663 418.134 153.806 417.937C153.954 417.734 154.028 417.488 154.028 417.198C154.028 416.761 153.871 416.427 153.557 416.197C153.243 415.962 152.846 415.845 152.366 415.845H150.732V418.551Z" fill="#00A57A"/>
<path d="M173.643 419.904C173.643 421.478 173.336 422.806 172.722 423.888C172.108 424.965 171.279 425.782 170.236 426.339C169.193 426.891 168.03 427.167 166.747 427.167C165.454 427.167 164.286 426.889 163.243 426.332C162.205 425.77 161.378 424.951 160.764 423.874C160.155 422.792 159.851 421.469 159.851 419.904C159.851 418.33 160.155 417.004 160.764 415.927C161.378 414.846 162.205 414.029 163.243 413.477C164.286 412.92 165.454 412.641 166.747 412.641C168.03 412.641 169.193 412.92 170.236 413.477C171.279 414.029 172.108 414.846 172.722 415.927C173.336 417.004 173.643 418.33 173.643 419.904ZM169.682 419.904C169.682 419.057 169.569 418.344 169.343 417.764C169.121 417.179 168.791 416.738 168.353 416.438C167.919 416.135 167.384 415.983 166.747 415.983C166.11 415.983 165.572 416.135 165.133 416.438C164.699 416.738 164.369 417.179 164.143 417.764C163.922 418.344 163.811 419.057 163.811 419.904C163.811 420.751 163.922 421.467 164.143 422.051C164.369 422.631 164.699 423.073 165.133 423.377C165.572 423.676 166.11 423.826 166.747 423.826C167.384 423.826 167.919 423.676 168.353 423.377C168.791 423.073 169.121 422.631 169.343 422.051C169.569 421.467 169.682 420.751 169.682 419.904Z" fill="#00A57A"/>
<path d="M187.693 412.834V426.974H184.48L179.356 419.545H179.273V426.974H175.424V412.834H178.692L183.732 420.236H183.843V412.834H187.693Z" fill="#00A57A"/>
<path d="M193.197 426.974H189.043L193.723 412.834H198.985L203.666 426.974H199.512L196.41 416.728H196.299L193.197 426.974ZM192.422 421.395H200.232V424.268H192.422V421.395Z" fill="#00A57A"/>
<path d="M205.031 412.834H209.823L213.118 420.843H213.285L216.58 412.834H221.372V426.974H217.605V418.8H217.494L214.337 426.863H212.066L208.909 418.744H208.798V426.974H205.031V412.834Z" fill="#00A57A"/>
<path d="M223.196 426.974V412.834H233.415V415.927H227.046V418.358H232.889V421.451H227.046V423.881H233.388V426.974H223.196Z" fill="#00A57A"/>
<path d="M247.594 412.834V426.974H244.381L239.257 419.545H239.174V426.974H235.325V412.834H238.593L243.633 420.236H243.744V412.834H247.594Z" fill="#00A57A"/>
<path d="M249.027 415.927V412.834H261.351V415.927H257.086V426.974H253.292V415.927H249.027Z" fill="#00A57A"/>
<path d="M275.87 419.904C275.87 421.478 275.563 422.806 274.949 423.888C274.335 424.965 273.507 425.782 272.464 426.339C271.42 426.891 270.257 427.167 268.974 427.167C267.682 427.167 266.514 426.889 265.471 426.332C264.432 425.77 263.606 424.951 262.992 423.874C262.383 422.792 262.078 421.469 262.078 419.904C262.078 418.33 262.383 417.004 262.992 415.927C263.606 414.846 264.432 414.029 265.471 413.477C266.514 412.92 267.682 412.641 268.974 412.641C270.257 412.641 271.42 412.92 272.464 413.477C273.507 414.029 274.335 414.846 274.949 415.927C275.563 417.004 275.87 418.33 275.87 419.904ZM271.91 419.904C271.91 419.057 271.797 418.344 271.57 417.764C271.349 417.179 271.019 416.738 270.58 416.438C270.146 416.135 269.611 415.983 268.974 415.983C268.337 415.983 267.799 416.135 267.361 416.438C266.927 416.738 266.597 417.179 266.371 417.764C266.149 418.344 266.038 419.057 266.038 419.904C266.038 420.751 266.149 421.467 266.371 422.051C266.597 422.631 266.927 423.073 267.361 423.377C267.799 423.676 268.337 423.826 268.974 423.826C269.611 423.826 270.146 423.676 270.58 423.377C271.019 423.073 271.349 422.631 271.57 422.051C271.797 421.467 271.91 420.751 271.91 419.904Z" fill="#00A57A"/>
<path d="M356.321 730.972C357.461 729.604 359.221 728.978 361.204 728.79C363.182 728.603 365.31 728.858 367.103 729.177L367.107 729.178C367.108 729.178 367.119 729.179 367.146 729.185C367.173 729.191 367.211 729.199 367.26 729.21C367.359 729.231 367.5 729.262 367.681 729.302C368.044 729.381 368.569 729.497 369.246 729.647C370.599 729.946 372.558 730.382 375.038 730.934C379.999 732.038 387.048 733.609 395.511 735.496C412.437 739.271 435.022 744.312 457.891 749.412C503.626 759.611 550.505 770.051 555.512 771.088L555.655 771.117L555.786 771.05C555.85 771.01 555.935 770.928 555.961 770.891C555.976 770.868 555.997 770.827 556.006 770.808C556.021 770.772 556.031 770.738 556.037 770.717C556.05 770.671 556.061 770.617 556.071 770.562C556.091 770.449 556.115 770.292 556.142 770.095C556.197 769.7 556.267 769.122 556.352 768.377C556.521 766.886 556.751 764.711 557.03 761.952C557.59 756.431 558.353 748.562 559.249 739.128C561.043 720.259 563.372 695.122 565.685 669.965C567.998 644.808 570.294 619.631 572.02 600.682C572.883 591.207 573.603 583.288 574.111 577.707C574.365 574.917 574.567 572.712 574.707 571.188C574.777 570.426 574.831 569.835 574.869 569.427C574.888 569.223 574.902 569.065 574.913 568.954C574.918 568.899 574.922 568.855 574.926 568.824L574.931 568.778C575.24 566.378 575.766 564.235 576.498 562.516C577.233 560.792 578.159 559.533 579.244 558.844C580.31 558.168 581.58 558.008 583.096 558.58C584.628 559.157 586.408 560.484 588.434 562.786L752.261 797.892C757.214 806.649 756.641 817.218 751.222 824.486C683.424 878.078 614.786 931.051 545.841 982.996C537.635 986.142 527.804 983.71 521.453 976.026L521.153 975.655L357.595 740.934C356.774 739.528 355.944 737.612 355.584 735.744C355.223 733.872 355.355 732.163 356.283 731.015L356.289 731.01L356.321 730.972Z" stroke="#00A57A" stroke-width="0.885714"/>
<path d="M138.833 649.057C140.351 650.666 140.976 652.351 141.034 654.066C141.093 655.797 140.576 657.596 139.743 659.419C138.911 661.24 137.778 663.051 136.635 664.804C135.504 666.538 134.354 668.228 133.518 669.771C78.109 754.996 23.5671 840.85 -32.0022 925.925C-35.3198 929.501 -38.7123 931.516 -41.9281 931.62C-45.1197 931.723 -48.2682 929.946 -51.1123 925.627L-179.289 691.949C-180.705 689.367 -181.669 686.504 -181.883 683.542L-181.883 683.541C-181.983 682.197 -181.926 680.889 -181.697 679.76L-181.589 679.288C-180.854 676.549 -178.907 674.655 -176.469 673.369C-174.027 672.082 -171.133 671.429 -168.606 671.167L-168.606 671.166C-127.109 668.202 -85.6448 664.618 -44.1879 660.957L-8.64946 657.813C32.8109 654.153 74.272 650.574 115.763 647.622C118.47 647.428 123.328 646.821 128.022 646.759C130.364 646.729 132.639 646.835 134.555 647.192C136.484 647.552 137.979 648.154 138.833 649.056L138.833 649.057Z" stroke="#00A57A" stroke-width="0.885714"/>
<path d="M1.97725 598.057C3.46795 597.936 4.93467 598.591 6.29864 599.624C7.65862 600.655 8.86677 602.024 9.82553 603.24L9.82806 603.243C9.82908 603.244 9.85055 603.274 9.90432 603.347C9.95499 603.416 10.0276 603.515 10.1205 603.643C10.3063 603.898 10.5746 604.267 10.9201 604.742C11.6116 605.695 12.6124 607.074 13.8787 608.822C16.4115 612.316 20.0083 617.283 24.3265 623.247C32.9628 635.175 44.486 651.093 56.155 667.209C79.4908 699.438 103.418 732.466 106.02 735.951L106.107 736.066L106.244 736.109C106.313 736.125 106.424 736.127 106.465 736.121C106.49 736.115 106.531 736.103 106.549 736.096C106.582 736.083 106.611 736.067 106.628 736.058C106.664 736.038 106.704 736.013 106.742 735.987C106.821 735.934 106.927 735.857 107.056 735.76C107.317 735.566 107.69 735.276 108.168 734.9C109.123 734.148 110.505 733.04 112.252 731.628C115.745 728.804 120.703 724.758 126.635 719.897C138.5 710.175 154.268 697.189 170.036 684.183C185.805 671.176 201.574 658.148 213.441 648.341C219.375 643.437 224.333 639.339 227.828 636.451C229.575 635.007 230.957 633.866 231.912 633.078C232.389 632.685 232.759 632.379 233.016 632.168C233.144 632.063 233.243 631.981 233.313 631.924L233.422 631.835L233.422 631.834C234.978 630.648 236.526 629.734 237.963 629.18C239.404 628.624 240.7 628.443 241.774 628.675C242.827 628.902 243.711 629.537 244.34 630.717C244.976 631.91 245.356 633.672 245.339 636.139L216.097 864.787C214.287 872.591 207.951 878.267 200.388 879.279C126.754 870.676 52.9367 861.235 -20.4926 851.03C-27.6003 848.045 -32.4896 840.833 -32.0033 832.684L-2.80769 604.401C-2.53365 603.136 -1.97803 601.579 -1.15429 600.318C-0.33114 599.059 0.703771 598.178 1.9237 598.06L1.93145 598.061L1.97725 598.057Z" stroke="#00A57A" stroke-width="0.885714"/>
<path d="M162.428 654.581C163.711 653.918 165.262 653.954 166.866 654.367C168.464 654.778 170.054 655.55 171.365 656.277L171.369 656.278C171.372 656.28 171.403 656.298 171.476 656.342C171.547 656.385 171.648 656.446 171.778 656.525C172.04 656.683 172.418 656.913 172.905 657.209C173.878 657.8 175.288 658.658 177.072 659.745C180.641 661.919 185.711 665.009 191.798 668.721C203.971 676.143 220.215 686.05 236.664 696.079C269.558 716.135 303.28 736.683 306.906 738.822L307.029 738.895L307.173 738.881C307.243 738.868 307.345 738.828 307.381 738.806C307.402 738.791 307.435 738.765 307.449 738.752C307.475 738.727 307.494 738.702 307.506 738.687C307.531 738.654 307.558 738.617 307.583 738.579C307.633 738.502 307.699 738.394 307.779 738.259C307.939 737.988 308.165 737.59 308.451 737.076C309.024 736.047 309.846 734.542 310.88 732.628C312.948 728.801 315.867 723.337 319.354 716.781C326.328 703.668 335.572 686.184 344.808 668.68C354.044 651.177 363.273 633.655 370.217 620.465C373.69 613.871 376.591 608.359 378.637 604.475C379.659 602.533 380.468 600.998 381.027 599.938C381.306 599.408 381.523 598.997 381.673 598.713C381.748 598.571 381.807 598.461 381.848 598.384L381.912 598.265L381.911 598.264C382.859 596.624 383.901 595.231 384.977 594.201C386.056 593.167 387.145 592.523 388.187 592.33C389.21 592.14 390.232 592.375 391.232 593.191C392.243 594.015 393.239 595.442 394.143 597.645L453.401 812.719C454.693 820.352 451.154 827.776 444.78 831.502C375.754 851.33 306.252 870.48 236.811 888.802C229.35 888.791 222.293 884.183 219.687 876.733L160.528 662.018C160.3 660.787 160.216 659.19 160.481 657.76C160.746 656.33 161.34 655.163 162.381 654.604L162.387 654.602L162.428 654.581Z" stroke="#00A57A" stroke-width="0.885714"/>
<path d="M368.236 536.696C371.361 534.19 374.412 533.366 377.378 533.623C380.361 533.881 383.297 535.238 386.164 537.167C389.03 539.095 391.797 541.575 394.447 544.045C397.078 546.498 399.605 548.952 401.965 550.8C530.83 670.57 660.983 788.89 789.561 908.927C794.76 915.824 797.358 922.596 796.718 928.686C796.081 934.746 792.221 940.258 784.22 944.628L361.279 1132.04C356.574 1134.12 351.498 1135.32 346.433 1135.09L345.942 1135.07C343.499 1134.92 341.178 1134.45 339.283 1133.64L339.284 1133.64C334.761 1131.67 332.017 1127.58 330.45 1122.76C328.882 1117.94 328.509 1112.42 328.699 1107.69C334.818 1019.65 339.568 931.523 344.321 843.403C349.075 755.277 353.834 667.157 359.974 579.135C360.32 574.138 360.514 565.029 361.579 556.361C362.111 552.032 362.858 547.839 363.941 544.355C365.03 540.854 366.437 538.145 368.237 536.697L368.236 536.696Z" stroke="#00A57A" stroke-width="0.885714"/>
</g>
<defs>
<clipPath id="clip0_1217_2285">
<rect width="393" height="852" fill="white"/>
</clipPath>
<clipPath id="clip1_1217_2285">
<rect width="17" height="12" fill="white" transform="translate(305.31 17.5)"/>
</clipPath>
<clipPath id="clip2_1217_2285">
<rect width="16" height="12" fill="white" transform="translate(328.31 17.5)"/>
</clipPath>
<clipPath id="clip3_1217_2285">
<rect width="25" height="12" fill="white" transform="translate(350.31 17.5)"/>
</clipPath>
</defs>
</svg>
