<svg width="189" height="102" viewBox="0 0 189 102" fill="none" xmlns="http://www.w3.org/2000/svg">
<g filter="url(#filter0_d_1398_1026)">
<g clip-path="url(#clip0_1398_1026)">
<rect x="2.15186" width="184" height="96.8421" rx="16.0704" fill="#3D7880"/>
<path d="M21.2783 65.2519C21.4068 65.3337 21.4982 65.4898 21.5502 65.7202C21.6014 65.9473 21.6049 66.2073 21.5935 66.4388L21.5935 66.4415C21.5927 66.4496 21.585 66.5377 21.5689 66.7151C21.5525 66.8953 21.5282 67.1569 21.4977 67.4874C21.4369 68.1484 21.3506 69.0875 21.2463 70.2151C21.0377 72.4705 20.7586 75.4815 20.4768 78.529C19.9134 84.6216 19.3375 90.8706 19.2859 91.5389L19.2788 91.627L19.3299 91.7017C19.3582 91.7363 19.4128 91.78 19.4359 91.7927C19.4501 91.7991 19.4744 91.8083 19.4849 91.8114C19.5039 91.8167 19.5202 91.8196 19.5271 91.8206C19.5426 91.8227 19.5575 91.8237 19.5666 91.8243C19.5869 91.8254 19.6119 91.8258 19.6387 91.8261C19.6937 91.8266 19.7718 91.8259 19.8701 91.8245C20.0675 91.8218 20.3542 91.815 20.7166 91.8055C21.4418 91.7864 22.4746 91.7549 23.7118 91.7147C26.1866 91.6344 29.4826 91.5199 32.7803 91.4028C36.0783 91.2856 39.3789 91.1661 41.8628 91.0757C43.1047 91.0304 44.1432 90.9924 44.8747 90.9658C45.2401 90.9525 45.529 90.9419 45.7286 90.9348C45.8281 90.9312 45.9053 90.9283 45.9587 90.9265C46.017 90.9244 46.0389 90.923 46.0366 90.923C46.3384 90.9234 46.6026 90.9556 46.8116 91.0147C47.0236 91.0747 47.1555 91.1563 47.2247 91.2394C47.2849 91.3118 47.3179 91.4091 47.2817 91.5615C47.2432 91.7232 47.1261 91.9436 46.8779 92.2271L19.1509 117.331C18.1695 118.063 16.901 118.151 15.9566 117.63C7.90664 109.75 -0.077309 101.752 -7.93371 93.6966C-8.39781 92.8113 -8.29283 91.6726 -7.56923 90.8047L-7.41422 90.6328L20.2643 65.5725C20.4189 65.4535 20.6318 65.327 20.8389 65.2589C21.0547 65.188 21.1967 65.2002 21.2763 65.2498L21.2783 65.2519Z" stroke="#FBFDFC" stroke-width="0.538012"/>
<path d="M168.954 31.3731C168.825 31.2913 168.734 31.1352 168.682 30.9048C168.631 30.6777 168.627 30.4177 168.638 30.1862L168.638 30.1835C168.639 30.1754 168.647 30.0873 168.663 29.9099C168.679 29.7297 168.704 29.4681 168.734 29.1376C168.795 28.4766 168.881 27.5375 168.986 26.4099C169.194 24.1545 169.473 21.1435 169.755 18.096C170.319 12.0034 170.894 5.75444 170.946 5.08609L170.953 4.99801L170.902 4.92328C170.874 4.88869 170.819 4.84505 170.796 4.83235C170.782 4.8259 170.757 4.81675 170.747 4.81359C170.728 4.80828 170.712 4.8054 170.705 4.80444C170.689 4.80228 170.674 4.80126 170.665 4.80075C170.645 4.79962 170.62 4.79919 170.593 4.79892C170.538 4.79837 170.46 4.79912 170.362 4.80049C170.164 4.80325 169.878 4.81003 169.515 4.81954C168.79 4.83857 167.757 4.87014 166.52 4.9103C164.045 4.99063 160.749 5.10507 157.452 5.22225C154.154 5.33944 150.853 5.45893 148.369 5.54935C147.127 5.59456 146.089 5.63264 145.357 5.65922C144.992 5.67251 144.703 5.68307 144.503 5.69021C144.404 5.69377 144.327 5.6967 144.273 5.69854C144.215 5.70056 144.193 5.70197 144.195 5.70197C143.894 5.7016 143.629 5.66935 143.42 5.6103C143.208 5.55034 143.076 5.46873 143.007 5.38562C142.947 5.3132 142.914 5.21587 142.95 5.06349C142.989 4.90183 143.106 4.68145 143.354 4.39794L171.081 -20.7062C172.062 -21.4378 173.331 -21.5261 174.275 -21.0048C182.325 -13.125 190.309 -5.12669 198.166 2.92843C198.63 3.81371 198.525 4.95238 197.801 5.8203L197.646 5.99223L169.968 31.0525C169.813 31.1715 169.6 31.298 169.393 31.3661C169.177 31.437 169.035 31.4248 168.956 31.3752L168.954 31.3731Z" stroke="#FBFDFC" stroke-width="0.538012"/>
<path d="M28.2383 35.4182C28.0858 35.6041 27.9231 35.6846 27.757 35.7115C27.5819 35.74 27.3784 35.7123 27.1457 35.64C26.9134 35.5677 26.673 35.4573 26.4275 35.3385C26.198 35.2274 25.9545 35.1054 25.7346 35.0187L25.734 35.0179C13.7739 29.2511 1.76138 23.6133 -10.1789 17.825C-10.6682 17.4724 -10.9304 17.1133 -10.9843 16.7788C-11.0359 16.457 -10.9059 16.0832 -10.4255 15.6715L17.7113 -4.7964C18.0025 -5.00818 18.3296 -5.16484 18.6731 -5.23428L18.6739 -5.23485C18.8535 -5.27151 19.0217 -5.2817 19.1549 -5.26506L19.1541 -5.26448C19.4399 -5.22569 19.6694 -5.05386 19.8548 -4.7899C19.9949 -4.59051 20.1 -4.35127 20.1743 -4.11399L20.2383 -3.87828C21.1568 0.687462 22.1339 5.24244 23.1253 9.79364L25.1155 18.8984C26.107 23.4511 27.0829 28.0055 27.9997 32.57C28.0729 32.9333 28.2278 33.5322 28.3126 34.1325C28.3545 34.4297 28.3768 34.7117 28.3633 34.9473C28.3493 35.1918 28.2996 35.3429 28.2383 35.4182Z" stroke="#FBFDFC" stroke-width="0.538012"/>
<path d="M161.994 61.2068C162.146 61.0209 162.309 60.9404 162.475 60.9135C162.65 60.885 162.854 60.9127 163.086 60.985C163.319 61.0573 163.559 61.1677 163.804 61.2865C164.034 61.3976 164.277 61.5196 164.497 61.6063L164.498 61.6071C176.458 67.3739 188.471 73.0117 200.411 78.8C200.9 79.1526 201.162 79.5117 201.216 79.8462C201.268 80.168 201.138 80.5418 200.657 80.9535L172.521 101.421C172.229 101.633 171.902 101.79 171.559 101.859L171.558 101.86C171.378 101.897 171.21 101.907 171.077 101.89L171.078 101.889C170.792 101.851 170.563 101.679 170.377 101.415C170.237 101.216 170.132 100.976 170.058 100.739L169.994 100.503C169.075 95.9375 168.098 91.3826 167.107 86.8314L165.116 77.7266C164.125 73.1739 163.149 68.6195 162.232 64.055C162.159 63.6917 162.004 63.0928 161.919 62.4925C161.877 62.1953 161.855 61.9133 161.869 61.6777C161.883 61.4332 161.932 61.2821 161.994 61.2068Z" stroke="#FBFDFC" stroke-width="0.538012"/>
<path d="M32.5415 17.0107C32.5665 17.1294 32.5333 17.2754 32.4341 17.4482C32.3364 17.6184 32.1932 17.7822 32.0562 17.9219L32.0542 17.9238C32.0512 17.9265 31.9976 17.9772 31.8853 18.083C31.7734 18.1883 31.612 18.3413 31.4067 18.5342C30.996 18.9202 30.4115 19.4677 29.7104 20.126C28.3082 21.4425 26.4362 23.1996 24.5415 24.9785C20.7537 28.5349 16.8693 32.1848 16.4595 32.5811L16.396 32.6416L16.3813 32.7285C16.3774 32.7707 16.3846 32.8362 16.3911 32.8594C16.3961 32.8733 16.406 32.8954 16.4106 32.9043C16.4196 32.9208 16.4283 32.9333 16.4321 32.9385C16.4406 32.95 16.4494 32.9599 16.4546 32.9658C16.4662 32.979 16.4813 32.9949 16.4966 33.0107C16.528 33.0432 16.5727 33.0888 16.6294 33.1445C16.7437 33.2569 16.9115 33.4181 17.1235 33.6211C17.5479 34.0274 18.1543 34.6031 18.8823 35.291C20.3388 36.6674 22.2834 38.4957 24.23 40.3232C26.1765 42.1508 28.126 43.9784 29.5933 45.3535C30.3268 46.041 30.9396 46.6156 31.3716 47.0205C31.5876 47.2229 31.7586 47.3826 31.8765 47.4932C31.9353 47.5484 31.9808 47.5915 32.0122 47.6211C32.0467 47.6535 32.0588 47.6648 32.0571 47.6631C32.2268 47.8353 32.3574 48.0047 32.4409 48.1592C32.5258 48.3162 32.5519 48.4393 32.5444 48.5264C32.538 48.6007 32.5057 48.6709 32.4106 48.7383C32.3073 48.8116 32.1266 48.8822 31.8306 48.9189L1.75342 48.9189C0.808847 48.8215 0.0500212 48.1668 -0.189943 47.3018C-0.294939 37.6404 -0.294939 27.9417 -0.189941 18.2803C0.0478769 17.4582 0.743643 16.8137 1.62158 16.6826L1.80127 16.6631L31.8354 16.6631C31.9838 16.6766 32.165 16.7182 32.311 16.7891C32.4645 16.8636 32.527 16.9431 32.5415 17.0078L32.5415 17.0107Z" stroke="#FBFDFC" stroke-width="0.538012"/>
<path d="M157.69 79.6123C157.665 79.4937 157.699 79.3476 157.798 79.1748C157.896 79.0047 158.039 78.8409 158.176 78.7012L158.178 78.6992C158.181 78.6965 158.234 78.6458 158.347 78.54C158.459 78.4347 158.62 78.2818 158.825 78.0889C159.236 77.7029 159.82 77.1553 160.521 76.4971C161.924 75.1805 163.796 73.4234 165.69 71.6445C169.478 68.0881 173.363 64.4382 173.772 64.042L173.836 63.9814L173.851 63.8945C173.854 63.8523 173.847 63.7869 173.841 63.7637C173.836 63.7498 173.826 63.7276 173.821 63.7188C173.812 63.7023 173.804 63.6897 173.8 63.6846C173.791 63.673 173.783 63.6632 173.777 63.6572C173.766 63.644 173.751 63.6281 173.735 63.6123C173.704 63.5799 173.659 63.5343 173.603 63.4785C173.488 63.3662 173.32 63.2049 173.108 63.002C172.684 62.5957 172.078 62.02 171.35 61.332C169.893 59.9556 167.948 58.1274 166.002 56.2998C164.055 54.4723 162.106 52.6446 160.639 51.2695C159.905 50.5821 159.292 50.0075 158.86 49.6025C158.644 49.4001 158.473 49.2405 158.355 49.1299C158.297 49.0747 158.251 49.0315 158.22 49.002C158.185 48.9695 158.173 48.9583 158.175 48.96C158.005 48.7878 157.875 48.6184 157.791 48.4639C157.706 48.3068 157.68 48.1837 157.688 48.0967C157.694 48.0223 157.726 47.9522 157.821 47.8848C157.925 47.8115 158.105 47.7409 158.401 47.7041L188.479 47.7041C189.423 47.8015 190.182 48.4563 190.422 49.3213C190.527 58.9827 190.527 68.6814 190.422 78.3428C190.184 79.1648 189.488 79.8093 188.61 79.9404L188.431 79.96L158.396 79.96C158.248 79.9464 158.067 79.9048 157.921 79.834C157.767 79.7595 157.705 79.6799 157.69 79.6152L157.69 79.6123Z" stroke="#FBFDFC" stroke-width="0.538012"/>
<path d="M27.1621 45.1748C27.1857 45.2869 27.1541 45.4262 27.0586 45.5928C26.9646 45.7566 26.8267 45.9147 26.6943 46.0498L26.6924 46.0518C26.6922 46.0517 26.6411 46.1007 26.5293 46.2061C26.4211 46.3081 26.2641 46.4557 26.0654 46.6426C25.6679 47.0166 25.1024 47.5478 24.4238 48.1855C23.0669 49.4609 21.2553 51.1626 19.4219 52.8857C15.7562 56.331 11.9971 59.8672 11.6006 60.251L11.5371 60.3115L11.5225 60.3975C11.5185 60.4396 11.5257 60.5061 11.5322 60.5293C11.5373 60.5433 11.5472 60.5654 11.5518 60.5742C11.5607 60.5907 11.5695 60.6033 11.5732 60.6084C11.5818 60.62 11.5906 60.63 11.5957 60.6357C11.607 60.6486 11.621 60.6635 11.6357 60.6787C11.6662 60.7102 11.7105 60.7544 11.7656 60.8086C11.8763 60.9175 12.0381 61.074 12.2432 61.2705C12.6539 61.6642 13.2407 62.2221 13.9453 62.8887C15.3548 64.222 17.2365 65.9923 19.1201 67.7627C21.0039 69.5332 22.8906 71.3036 24.3105 72.6357C25.0206 73.3018 25.6141 73.8587 26.0322 74.251C26.2412 74.447 26.4065 74.6019 26.5205 74.709C26.6326 74.8143 26.6898 74.8669 26.6953 74.8721L26.6943 74.873C26.8584 75.0396 26.984 75.2036 27.0645 75.3525C27.1461 75.5038 27.1711 75.621 27.1641 75.7031C27.1581 75.7727 27.1281 75.8384 27.0381 75.9023C26.9399 75.9721 26.7671 76.0397 26.4824 76.0752L-2.63086 76.0752C-3.53766 75.9788 -4.26598 75.3486 -4.49707 74.5166C-4.59866 65.1589 -4.59863 55.765 -4.49707 46.4072C-4.26833 45.6132 -3.59822 44.9901 -2.75195 44.8633L-2.57813 44.8447L26.4863 44.8447C26.6291 44.8578 26.8033 44.8978 26.9434 44.9658C27.0908 45.0374 27.1488 45.1128 27.1621 45.1719L27.1621 45.1748Z" stroke="#FBFDFC" stroke-width="0.538012"/>
<path d="M163.07 51.4463C163.046 51.3342 163.078 51.1949 163.173 51.0283C163.267 50.8645 163.405 50.7064 163.538 50.5713L163.54 50.5693C163.54 50.5694 163.591 50.5204 163.703 50.415C163.811 50.313 163.968 50.1654 164.167 49.9785C164.564 49.6045 165.13 49.0733 165.808 48.4355C167.165 47.1602 168.977 45.4585 170.81 43.7354C174.476 40.2901 178.235 36.7539 178.631 36.3701L178.695 36.3096L178.709 36.2236C178.713 36.1815 178.706 36.115 178.7 36.0918C178.695 36.0778 178.685 36.0557 178.68 36.0469C178.671 36.0304 178.662 36.0178 178.659 36.0127C178.65 36.0011 178.641 35.9911 178.636 35.9854C178.625 35.9725 178.611 35.9576 178.596 35.9424C178.566 35.9108 178.521 35.8667 178.466 35.8125C178.356 35.7036 178.194 35.5471 177.989 35.3506C177.578 34.9569 176.991 34.399 176.287 33.7324C174.877 32.3991 172.995 30.6288 171.112 28.8584C169.228 27.0879 167.341 25.3175 165.921 23.9854C165.211 23.3192 164.618 22.7624 164.2 22.3701C163.991 22.1741 163.825 22.0192 163.711 21.9121C163.599 21.8068 163.542 21.7542 163.537 21.749L163.538 21.748C163.374 21.5815 163.248 21.4175 163.167 21.2686C163.086 21.1173 163.061 21.0001 163.068 20.918C163.074 20.8484 163.104 20.7827 163.194 20.7188C163.292 20.649 163.465 20.5814 163.75 20.5459L192.863 20.5459C193.77 20.6423 194.498 21.2725 194.729 22.1045C194.831 31.4622 194.831 40.8561 194.729 50.2139C194.5 51.0079 193.83 51.631 192.984 51.7578L192.81 51.7764L163.746 51.7764C163.603 51.7633 163.429 51.7233 163.289 51.6553C163.141 51.5837 163.083 51.5083 163.07 51.4492L163.07 51.4463Z" stroke="#FBFDFC" stroke-width="0.538012"/>
<path d="M46.6173 63.5528C46.9565 63.8803 47.0891 64.2122 47.1028 64.5451C47.1168 64.8883 47.0047 65.2568 46.8096 65.6455C46.615 66.0332 46.3479 66.4214 46.0722 66.8051C45.8065 67.1748 45.5279 67.5482 45.3227 67.89L45.3218 67.8905C31.9396 86.5709 18.7749 105.382 5.35539 124.027C4.56854 124.792 3.78706 125.197 3.06926 125.213C2.36915 125.229 1.65468 124.876 0.985328 123.954L-30.2996 72.2704C-30.5926 71.7864 -30.8015 71.2602 -30.884 70.7191L-30.912 70.4862C-30.9397 70.1621 -30.9193 69.8544 -30.8498 69.6073L-30.8493 69.6081C-30.6901 69.0638 -30.2618 68.6778 -29.695 68.41C-29.1294 68.1429 -28.4524 68.0071 -27.853 67.9541C-19.2202 67.4545 -10.5936 66.8538 -1.96977 66.2287L15.2759 64.968C23.8984 64.3435 32.5215 63.7449 41.1497 63.2477C41.8192 63.2089 42.9817 63.0843 44.1154 63.0787C44.6792 63.0759 45.2197 63.1031 45.67 63.1824C46.0735 63.2535 46.3678 63.3601 46.5476 63.4942L46.6173 63.5528Z" stroke="#FBFDFC" stroke-width="0.538012"/>
<path d="M143.615 33.0722C143.275 32.7447 143.143 32.4128 143.129 32.0799C143.115 31.7367 143.227 31.3682 143.422 30.9795C143.617 30.5918 143.884 30.2036 144.16 29.8199C144.425 29.4502 144.704 29.0768 144.909 28.735L144.91 28.7345C158.292 10.0541 171.457 -8.75693 184.877 -27.4022C185.663 -28.167 186.445 -28.5722 187.163 -28.5883C187.863 -28.604 188.577 -28.2506 189.247 -27.3294L220.532 24.3546C220.825 24.8386 221.033 25.3648 221.116 25.9059L221.144 26.1388C221.172 26.4629 221.151 26.7706 221.082 27.0177L221.081 27.0169C220.922 27.5612 220.494 27.9472 219.927 28.215C219.361 28.4821 218.684 28.6179 218.085 28.6709C209.452 29.1705 200.826 29.7712 192.202 30.3963L174.956 31.657C166.334 32.2815 157.71 32.8801 149.082 33.3773C148.413 33.4161 147.25 33.5407 146.117 33.5463C145.553 33.5491 145.012 33.5219 144.562 33.4426C144.158 33.3715 143.864 33.2649 143.684 33.1308L143.615 33.0722Z" stroke="#FBFDFC" stroke-width="0.538012"/>
<path d="M94.718 23.0726C94.9924 23.0199 95.2796 23.2333 95.469 23.4026C95.5179 23.4456 104.489 32.1652 105.002 32.6485C105.056 32.6571 114.509 23.4468 114.558 23.4026C115.038 22.9708 115.57 22.8641 115.672 23.6381V41.4859C115.603 42.1189 115.117 42.6304 114.473 42.785C108.174 42.8475 101.851 42.8475 95.5527 42.785C94.9048 42.623 94.4012 42.1041 94.3535 41.4564V23.6381C94.3728 23.4321 94.4772 23.1192 94.7167 23.0726H94.718Z" fill="#FBFDFC"/>
<path d="M72.804 42.5473C72.5219 42.2737 72.6366 41.8211 72.7873 41.5095C75.7588 35.8297 78.5359 30.0567 81.5088 24.3782C81.6762 24.058 82.0626 23.1711 82.4297 23.0791C83.0454 22.9257 83.2399 23.6716 83.4769 24.0543C86.4562 29.9414 89.5037 35.8003 92.4689 41.6923C92.6518 42.3093 92.4637 42.7681 91.7463 42.8233H73.6413C73.4378 42.8233 73.233 42.7877 73.0488 42.7043C72.9534 42.6614 72.8671 42.6074 72.804 42.5473Z" fill="#FBFDFC"/>
<path d="M70.9402 54.3802H74.6203L77.1516 60.5491H77.2793L79.8107 54.3802H83.4907V65.2715H80.5977V58.9749H80.5126L78.0876 65.1864H76.3433L73.9183 58.9324H73.8332V65.2715H70.9402V54.3802ZM91.3375 54.3802H94.2943V61.3574C94.2943 62.187 94.0958 62.905 93.6987 63.5112C93.3052 64.1139 92.7556 64.5801 92.0501 64.9099C91.3446 65.236 90.5256 65.3991 89.5932 65.3991C88.6537 65.3991 87.8311 65.236 87.1256 64.9099C86.4201 64.5801 85.8706 64.1139 85.477 63.5112C85.087 62.905 84.892 62.187 84.892 61.3574V54.3802H87.8489V61.1021C87.8489 61.439 87.9233 61.7403 88.0722 62.0062C88.2211 62.2686 88.4268 62.4742 88.6891 62.6231C88.955 62.772 89.2564 62.8465 89.5932 62.8465C89.9335 62.8465 90.2349 62.772 90.4972 62.6231C90.7596 62.4742 90.9652 62.2686 91.1141 62.0062C91.263 61.7403 91.3375 61.439 91.3375 61.1021V54.3802ZM101.571 57.7837C101.542 57.4292 101.409 57.1526 101.172 56.9541C100.938 56.7555 100.582 56.6563 100.103 56.6563C99.798 56.6563 99.5481 56.6935 99.3531 56.7679C99.1616 56.8389 99.0198 56.9364 98.9277 57.0604C98.8355 57.1845 98.7876 57.3263 98.7841 57.4859C98.777 57.6171 98.8 57.7358 98.8532 57.8422C98.9099 57.945 98.9986 58.039 99.1191 58.124C99.2396 58.2056 99.3939 58.28 99.5818 58.3474C99.7697 58.4148 99.993 58.475 100.252 58.5282L101.145 58.7197C101.748 58.8473 102.264 59.0157 102.693 59.2249C103.122 59.4341 103.473 59.6805 103.746 59.9641C104.019 60.2442 104.219 60.5597 104.347 60.9107C104.478 61.2617 104.545 61.6446 104.549 62.0594C104.545 62.7756 104.366 63.3818 104.012 63.8782C103.657 64.3745 103.15 64.7521 102.491 65.0109C101.835 65.2697 101.046 65.3991 100.124 65.3991C99.1776 65.3991 98.3515 65.2591 97.646 64.979C96.944 64.6989 96.398 64.2681 96.0081 63.6867C95.6216 63.1017 95.4266 62.3537 95.4231 61.4425H98.231C98.2487 61.7758 98.332 62.0558 98.4809 62.2827C98.6298 62.5097 98.839 62.6816 99.1085 62.7986C99.3815 62.9156 99.7059 62.9741 100.082 62.9741C100.397 62.9741 100.661 62.9351 100.874 62.8571C101.087 62.7791 101.248 62.671 101.358 62.5327C101.468 62.3944 101.525 62.2367 101.528 62.0594C101.525 61.8928 101.47 61.7474 101.363 61.6233C101.261 61.4957 101.09 61.3822 100.853 61.283C100.615 61.1801 100.294 61.0844 99.8902 60.9958L98.8053 60.7618C97.841 60.5526 97.0805 60.2034 96.5239 59.7141C95.9708 59.2213 95.6961 58.5495 95.6996 57.6986C95.6961 57.0073 95.8804 56.4028 96.2527 55.8852C96.6285 55.364 97.1479 54.958 97.8109 54.6673C98.4774 54.3766 99.2414 54.2312 100.103 54.2312C100.982 54.2312 101.743 54.3784 102.384 54.6726C103.026 54.9669 103.521 55.3817 103.868 55.9171C104.219 56.4489 104.396 57.0711 104.4 57.7837H101.571ZM105.674 65.2715V54.3802H113.523V56.7626H108.63V58.6346H113.119V61.0171H108.63V62.889H113.502V65.2715H105.674ZM117.946 54.3802V65.2715H114.989V54.3802H117.946Z" fill="#FBFDFC"/>
<path d="M71.3697 52.8066H70.1087L71.5294 48.5025H73.1266L74.5473 52.8066H73.2863L72.3448 49.6879H72.3112L71.3697 52.8066ZM71.1343 51.1085H73.5049V51.9828H71.1343V51.1085ZM74.9618 52.8066V48.5025H76.8281C77.1559 48.5025 77.4312 48.5467 77.654 48.6349C77.8782 48.7232 78.047 48.8479 78.1605 49.009C78.2754 49.1702 78.3328 49.36 78.3328 49.5786C78.3328 49.7369 78.2978 49.8812 78.2277 50.0115C78.1591 50.1418 78.0624 50.2511 77.9377 50.3394C77.813 50.4262 77.6673 50.4865 77.5006 50.5201V50.5621C77.6855 50.5691 77.8537 50.6161 78.005 50.7029C78.1563 50.7884 78.2768 50.9068 78.3665 51.0581C78.4561 51.208 78.501 51.3846 78.501 51.5877C78.501 51.8231 78.4393 52.0325 78.316 52.2161C78.1941 52.3996 78.0204 52.5439 77.7948 52.649C77.5692 52.7541 77.3002 52.8066 76.9878 52.8066H74.9618ZM76.1303 51.8735H76.6768C76.8729 51.8735 77.02 51.8371 77.1181 51.7642C77.2162 51.69 77.2652 51.5807 77.2652 51.4364C77.2652 51.3355 77.2421 51.25 77.1959 51.18C77.1496 51.1099 77.0838 51.0567 76.9983 51.0203C76.9142 50.9838 76.8127 50.9656 76.6936 50.9656H76.1303V51.8735ZM76.1303 50.2427H76.6095C76.7118 50.2427 76.8022 50.2266 76.8806 50.1943C76.9591 50.1621 77.02 50.1159 77.0635 50.0556C77.1083 49.994 77.1307 49.919 77.1307 49.8308C77.1307 49.6977 77.0831 49.5961 76.9878 49.526C76.8925 49.4546 76.772 49.4188 76.6263 49.4188H76.1303V50.2427ZM78.915 52.8066V48.5025H80.7812C81.1091 48.5025 81.3844 48.5467 81.6071 48.6349C81.8313 48.7232 82.0001 48.8479 82.1136 49.009C82.2285 49.1702 82.286 49.36 82.286 49.5786C82.286 49.7369 82.2509 49.8812 82.1809 50.0115C82.1122 50.1418 82.0155 50.2511 81.8909 50.3394C81.7662 50.4262 81.6204 50.4865 81.4537 50.5201V50.5621C81.6387 50.5691 81.8068 50.6161 81.9581 50.7029C82.1094 50.7884 82.2299 50.9068 82.3196 51.0581C82.4092 51.208 82.4541 51.3846 82.4541 51.5877C82.4541 51.8231 82.3924 52.0325 82.2691 52.2161C82.1472 52.3996 81.9735 52.5439 81.7479 52.649C81.5224 52.7541 81.2534 52.8066 80.9409 52.8066H78.915ZM80.0835 51.8735H80.6299C80.826 51.8735 80.9731 51.8371 81.0712 51.7642C81.1693 51.69 81.2183 51.5807 81.2183 51.4364C81.2183 51.3355 81.1952 51.25 81.149 51.18C81.1027 51.1099 81.0369 51.0567 80.9514 51.0203C80.8674 50.9838 80.7658 50.9656 80.6467 50.9656H80.0835V51.8735ZM80.0835 50.2427H80.5626C80.6649 50.2427 80.7553 50.2266 80.8337 50.1943C80.9122 50.1621 80.9731 50.1159 81.0166 50.0556C81.0614 49.994 81.0838 49.919 81.0838 49.8308C81.0838 49.6977 81.0362 49.5961 80.9409 49.526C80.8457 49.4546 80.7252 49.4188 80.5794 49.4188H80.0835V50.2427ZM87.0377 50.6546C87.0377 51.1338 86.9445 51.538 86.7582 51.8672C86.5718 52.1951 86.3203 52.4438 86.0037 52.6133C85.6871 52.7814 85.334 52.8655 84.9445 52.8655C84.5522 52.8655 84.1977 52.7807 83.8811 52.6112C83.5658 52.4403 83.315 52.1909 83.1287 51.863C82.9438 51.5338 82.8513 51.131 82.8513 50.6546C82.8513 50.1754 82.9438 49.7719 83.1287 49.4441C83.315 49.1148 83.5658 48.8661 83.8811 48.698C84.1977 48.5285 84.5522 48.4437 84.9445 48.4437C85.334 48.4437 85.6871 48.5285 86.0037 48.698C86.3203 48.8661 86.5718 49.1148 86.7582 49.4441C86.9445 49.7719 87.0377 50.1754 87.0377 50.6546ZM85.8356 50.6546C85.8356 50.3968 85.8012 50.1796 85.7326 50.0031C85.6653 49.8252 85.5652 49.6907 85.4321 49.5996C85.3004 49.5071 85.1378 49.4609 84.9445 49.4609C84.7511 49.4609 84.5879 49.5071 84.4548 49.5996C84.3231 49.6907 84.2229 49.8252 84.1543 50.0031C84.087 50.1796 84.0534 50.3968 84.0534 50.6546C84.0534 50.9124 84.087 51.1303 84.1543 51.3082C84.2229 51.4847 84.3231 51.6192 84.4548 51.7117C84.5879 51.8028 84.7511 51.8483 84.9445 51.8483C85.1378 51.8483 85.3004 51.8028 85.4321 51.7117C85.5652 51.6192 85.6653 51.4847 85.7326 51.3082C85.8012 51.1303 85.8356 50.9124 85.8356 50.6546ZM91.3024 48.5025V52.8066H90.3272L88.772 50.5453H88.7468V52.8066H87.5783V48.5025H88.5703L90.1003 50.7555H90.1339V48.5025H91.3024ZM92.9732 52.8066H91.7122L93.1329 48.5025H94.7301L96.1508 52.8066H94.8898L93.9483 49.6879H93.9147L92.9732 52.8066ZM92.7378 51.1085H95.1084V51.9828H92.7378V51.1085ZM96.5653 48.5025H98.0196L99.02 50.9404H99.0704L100.071 48.5025H101.525V52.8066H100.382V50.3183H100.348L99.3899 52.773H98.7006L97.7422 50.3015H97.7086V52.8066H96.5653V48.5025ZM102.079 52.8066V48.5025H105.181V49.4441H103.247V50.1838H105.021V51.1254H103.247V51.8651H105.172V52.8066H102.079ZM109.484 48.5025V52.8066H108.509L106.954 50.5453H106.929V52.8066H105.76V48.5025H106.752L108.282 50.7555H108.316V48.5025H109.484ZM109.919 49.4441V48.5025H113.66V49.4441H112.366V52.8066H111.214V49.4441H109.919ZM118.067 50.6546C118.067 51.1338 117.974 51.538 117.788 51.8672C117.602 52.1951 117.35 52.4438 117.033 52.6133C116.717 52.7814 116.364 52.8655 115.974 52.8655C115.582 52.8655 115.227 52.7807 114.911 52.6112C114.596 52.4403 114.345 52.1909 114.158 51.863C113.973 51.5338 113.881 51.131 113.881 50.6546C113.881 50.1754 113.973 49.7719 114.158 49.4441C114.345 49.1148 114.596 48.8661 114.911 48.698C115.227 48.5285 115.582 48.4437 115.974 48.4437C116.364 48.4437 116.717 48.5285 117.033 48.698C117.35 48.8661 117.602 49.1148 117.788 49.4441C117.974 49.7719 118.067 50.1754 118.067 50.6546ZM116.865 50.6546C116.865 50.3968 116.831 50.1796 116.762 50.0031C116.695 49.8252 116.595 49.6907 116.462 49.5996C116.33 49.5071 116.168 49.4609 115.974 49.4609C115.781 49.4609 115.618 49.5071 115.485 49.5996C115.353 49.6907 115.253 49.8252 115.184 50.0031C115.117 50.1796 115.083 50.3968 115.083 50.6546C115.083 50.9124 115.117 51.1303 115.184 51.3082C115.253 51.4847 115.353 51.6192 115.485 51.7117C115.618 51.8028 115.781 51.8483 115.974 51.8483C116.168 51.8483 116.33 51.8028 116.462 51.7117C116.595 51.6192 116.695 51.4847 116.762 51.3082C116.831 51.1303 116.865 50.9124 116.865 50.6546Z" fill="#FBFDFC"/>
<path d="M56.5653 78.0313C56.5653 78.2975 56.5025 78.5485 56.377 78.7846C56.2514 79.0206 56.0506 79.2139 55.7744 79.3645C55.4982 79.5102 55.1442 79.583 54.7123 79.583H53.7633V81.707H52.9046V76.4722H54.7123C55.1141 76.4722 55.453 76.5425 55.7292 76.6831C56.0104 76.8187 56.2188 77.0045 56.3544 77.2405C56.495 77.4765 56.5653 77.7401 56.5653 78.0313ZM54.7123 78.8825C55.0387 78.8825 55.2823 78.8097 55.443 78.664C55.6037 78.5134 55.684 78.3025 55.684 78.0313C55.684 77.4589 55.3601 77.1727 54.7123 77.1727H53.7633V78.8825H54.7123ZM58.2429 76.4722V81.707H57.3842V76.4722H58.2429ZM60.2289 77.1651V78.7017H62.0366V79.4022H60.2289V81.0065H62.2626V81.707H59.3702V76.4646H62.2626V77.1651H60.2289ZM68.8337 76.4722V81.707H67.9751V78.1217L66.3783 81.707H65.7832L64.1789 78.1217V81.707H63.3202V76.4722H64.2467L66.0845 80.5772L67.9148 76.4722H68.8337ZM72.35 81.7598C71.8629 81.7598 71.4135 81.6468 71.0018 81.4208C70.595 81.1898 70.2712 80.871 70.0301 80.4642C69.7941 80.0525 69.6761 79.5905 69.6761 79.0783C69.6761 78.5661 69.7941 78.1067 70.0301 77.6999C70.2712 77.2932 70.595 76.9768 71.0018 76.7509C71.4135 76.5199 71.8629 76.4044 72.35 76.4044C72.8421 76.4044 73.2915 76.5199 73.6983 76.7509C74.11 76.9768 74.4339 77.2932 74.6699 77.6999C74.9059 78.1067 75.0239 78.5661 75.0239 79.0783C75.0239 79.5905 74.9059 80.0525 74.6699 80.4642C74.4339 80.871 74.11 81.1898 73.6983 81.4208C73.2915 81.6468 72.8421 81.7598 72.35 81.7598ZM72.35 81.0141C72.6965 81.0141 73.0053 80.9362 73.2765 80.7806C73.5476 80.6199 73.7585 80.3939 73.9092 80.1027C74.0649 79.8064 74.1427 79.465 74.1427 79.0783C74.1427 78.6917 74.0649 78.3527 73.9092 78.0615C73.7585 77.7702 73.5476 77.5468 73.2765 77.3911C73.0053 77.2354 72.6965 77.1576 72.35 77.1576C72.0035 77.1576 71.6947 77.2354 71.4236 77.3911C71.1524 77.5468 70.939 77.7702 70.7833 78.0615C70.6327 78.3527 70.5574 78.6917 70.5574 79.0783C70.5574 79.465 70.6327 79.8064 70.7833 80.1027C70.939 80.3939 71.1524 80.6199 71.4236 80.7806C71.6947 80.9362 72.0035 81.0141 72.35 81.0141ZM80.1698 81.707H79.3111L76.7276 77.7978V81.707H75.8689V76.4646H76.7276L79.3111 80.3663V76.4646H80.1698V81.707ZM84.6793 76.4722V77.1727H83.2858V81.707H82.4272V77.1727H81.0262V76.4722H84.6793ZM86.4076 77.1651V78.7017H88.2153V79.4022H86.4076V81.0065H88.4413V81.707H85.5489V76.4646H88.4413V77.1651H86.4076ZM95.5003 81.707L94.8525 81.0593C94.6014 81.3103 94.3277 81.4986 94.0315 81.6242C93.7352 81.7447 93.4038 81.8049 93.0372 81.8049C92.6656 81.8049 92.3367 81.7397 92.0505 81.6091C91.7643 81.4786 91.5434 81.2928 91.3877 81.0517C91.232 80.8057 91.1542 80.522 91.1542 80.2006C91.1542 79.8391 91.2571 79.5177 91.463 79.2365C91.6689 78.9503 91.9752 78.7243 92.3819 78.5586C92.2363 78.3828 92.1334 78.2196 92.0731 78.069C92.0129 77.9133 91.9827 77.7426 91.9827 77.5568C91.9827 77.3258 92.0405 77.1199 92.156 76.9392C92.2765 76.7584 92.4472 76.6153 92.6682 76.5098C92.8891 76.4044 93.1452 76.3517 93.4364 76.3517C93.7327 76.3517 93.9838 76.4094 94.1897 76.5249C94.4006 76.6354 94.5562 76.7885 94.6566 76.9844C94.7621 77.1802 94.8048 77.3986 94.7847 77.6397H93.926C93.9311 77.4539 93.8859 77.3108 93.7905 77.2103C93.695 77.1049 93.5645 77.0522 93.3988 77.0522C93.2331 77.0522 93.0975 77.1024 92.992 77.2028C92.8916 77.2982 92.8414 77.4162 92.8414 77.5568C92.8414 77.6924 92.8791 77.828 92.9544 77.9635C93.0347 78.0941 93.1728 78.2648 93.3686 78.4757L94.7546 79.8541L95.2894 78.9729H96.2158L95.5379 80.1328L95.3496 80.4416L96.6225 81.707H95.5003ZM93.0372 81.0743C93.5093 81.0743 93.926 80.881 94.2876 80.4944L92.9017 79.1009C92.3091 79.3369 92.0129 79.6934 92.0129 80.1705C92.0129 80.4266 92.1083 80.6425 92.2991 80.8182C92.4899 80.989 92.7359 81.0743 93.0372 81.0743ZM100.001 76.1332V81.707H99.1421V76.1332H100.001ZM103.516 81.7598C103.029 81.7598 102.579 81.6468 102.168 81.4208C101.761 81.1898 101.437 80.871 101.196 80.4642C100.96 80.0525 100.842 79.5905 100.842 79.0783C100.842 78.5661 100.96 78.1067 101.196 77.6999C101.437 77.2932 101.761 76.9768 102.168 76.7509C102.579 76.5199 103.029 76.4044 103.516 76.4044C104.008 76.4044 104.457 76.5199 104.864 76.7509C105.276 76.9768 105.6 77.2932 105.836 77.6999C106.072 78.1067 106.19 78.5661 106.19 79.0783C106.19 79.5905 106.072 80.0525 105.836 80.4642C105.6 80.871 105.276 81.1898 104.864 81.4208C104.457 81.6468 104.008 81.7598 103.516 81.7598ZM103.516 81.0141C103.862 81.0141 104.171 80.9362 104.442 80.7806C104.713 80.6199 104.924 80.3939 105.075 80.1027C105.231 79.8064 105.308 79.465 105.308 79.0783C105.308 78.6917 105.231 78.3527 105.075 78.0615C104.924 77.7702 104.713 77.5468 104.442 77.3911C104.171 77.2354 103.862 77.1576 103.516 77.1576C103.169 77.1576 102.861 77.2354 102.589 77.3911C102.318 77.5468 102.105 77.7702 101.949 78.0615C101.798 78.3527 101.723 78.6917 101.723 79.0783C101.723 79.465 101.798 79.8064 101.949 80.1027C102.105 80.3939 102.318 80.6199 102.589 80.7806C102.861 80.9362 103.169 81.0141 103.516 81.0141ZM112.548 76.4722V81.707H111.69V78.1217L110.093 81.707H109.498L107.893 78.1217V81.707H107.035V76.4722H107.961L109.799 80.5772L111.629 76.4722H112.548ZM116.833 80.6375H114.641L114.264 81.707H113.368L115.244 76.4646H116.238L118.113 81.707H117.209L116.833 80.6375ZM116.592 79.937L115.741 77.5041L114.882 79.937H116.592ZM121.731 79.018C122.012 79.0683 122.25 79.2164 122.446 79.4624C122.642 79.7085 122.74 79.9872 122.74 80.2985C122.74 80.5647 122.67 80.8057 122.529 81.0216C122.394 81.2325 122.195 81.4007 121.934 81.5263C121.673 81.6468 121.369 81.707 121.023 81.707H118.929V76.4722H120.925C121.281 76.4722 121.588 76.5324 121.844 76.6529C122.1 76.7735 122.293 76.9367 122.424 77.1425C122.554 77.3434 122.62 77.5694 122.62 77.8204C122.62 78.1217 122.539 78.3728 122.378 78.5737C122.218 78.7745 122.002 78.9226 121.731 79.018ZM119.787 78.6716H120.849C121.131 78.6716 121.349 78.6088 121.505 78.4833C121.665 78.3527 121.746 78.1669 121.746 77.9259C121.746 77.6899 121.665 77.5066 121.505 77.376C121.349 77.2405 121.131 77.1727 120.849 77.1727H119.787V78.6716ZM120.947 81.0065C121.239 81.0065 121.467 80.9362 121.633 80.7956C121.799 80.655 121.881 80.4592 121.881 80.2081C121.881 79.952 121.793 79.7487 121.618 79.598C121.442 79.4474 121.208 79.3721 120.917 79.3721H119.787V81.0065H120.947ZM126.392 81.707L125.187 79.6131H124.532V81.707H123.673V76.4722H125.481C125.883 76.4722 126.222 76.5425 126.498 76.6831C126.779 76.8237 126.987 77.012 127.123 77.248C127.263 77.484 127.334 77.7476 127.334 78.0389C127.334 78.3803 127.233 78.6917 127.032 78.9729C126.837 79.249 126.533 79.4373 126.121 79.5378L127.417 81.707H126.392ZM124.532 78.9277H125.481C125.802 78.9277 126.043 78.8473 126.204 78.6866C126.37 78.5259 126.452 78.31 126.452 78.0389C126.452 77.7677 126.372 77.5568 126.211 77.4062C126.051 77.2505 125.807 77.1727 125.481 77.1727H124.532V78.9277ZM130.142 76.4722C130.699 76.4722 131.186 76.5801 131.603 76.7961C132.025 77.007 132.349 77.3133 132.575 77.715C132.806 78.1117 132.921 78.5762 132.921 79.1084C132.921 79.6407 132.806 80.1027 132.575 80.4944C132.349 80.886 132.025 81.1873 131.603 81.3982C131.186 81.6041 130.699 81.707 130.142 81.707H128.432V76.4722H130.142ZM130.142 81.0065C130.755 81.0065 131.224 80.8408 131.551 80.5094C131.877 80.178 132.04 79.711 132.04 79.1084C132.04 78.5008 131.877 78.0263 131.551 77.6849C131.224 77.3434 130.755 77.1727 130.142 77.1727H129.291V81.0065H130.142ZM134.631 76.4722V81.707H133.772V76.4722H134.631ZM138.914 80.6375H136.723L136.346 81.707H135.45L137.325 76.4646H138.319L140.195 81.707H139.291L138.914 80.6375ZM138.673 79.937L137.822 77.5041L136.964 79.937H138.673Z" fill="#FBFDFC"/>
</g>
</g>
<defs>
<filter id="filter0_d_1398_1026" x="-0.000191212" y="0" width="188.304" height="101.146" filterUnits="userSpaceOnUse" color-interpolation-filters="sRGB">
<feFlood flood-opacity="0" result="BackgroundImageFix"/>
<feColorMatrix in="SourceAlpha" type="matrix" values="0 0 0 0 0 0 0 0 0 0 0 0 0 0 0 0 0 0 127 0" result="hardAlpha"/>
<feOffset dy="2.15205"/>
<feGaussianBlur stdDeviation="1.07602"/>
<feComposite in2="hardAlpha" operator="out"/>
<feColorMatrix type="matrix" values="0 0 0 0 0 0 0 0 0 0 0 0 0 0 0 0 0 0 0.25 0"/>
<feBlend mode="normal" in2="BackgroundImageFix" result="effect1_dropShadow_1398_1026"/>
<feBlend mode="normal" in="SourceGraphic" in2="effect1_dropShadow_1398_1026" result="shape"/>
</filter>
<clipPath id="clip0_1398_1026">
<rect x="2.15186" width="184" height="96.8421" rx="16.0704" fill="white"/>
</clipPath>
</defs>
</svg>
