<svg width="189" height="102" viewBox="0 0 189 102" fill="none" xmlns="http://www.w3.org/2000/svg">
<g filter="url(#filter0_d_1398_1004)">
<g clip-path="url(#clip0_1398_1004)">
<rect x="2.15186" width="184" height="96.8421" rx="16.0704" fill="#1B5572"/>
<path d="M21.2778 65.2519C21.4063 65.3337 21.4977 65.4898 21.5497 65.7202C21.6009 65.9473 21.6044 66.2073 21.5931 66.4388L21.593 66.4415C21.5922 66.4496 21.5845 66.5377 21.5684 66.7151C21.552 66.8953 21.5277 67.1569 21.4972 67.4874C21.4364 68.1484 21.3501 69.0875 21.2459 70.2151C21.0373 72.4705 20.7582 75.4815 20.4763 78.529C19.9129 84.6216 19.337 90.8706 19.2854 91.5389L19.2783 91.627L19.3294 91.7017C19.3577 91.7363 19.4123 91.78 19.4354 91.7927C19.4496 91.7991 19.474 91.8083 19.4844 91.8114C19.5034 91.8167 19.5198 91.8196 19.5266 91.8206C19.5421 91.8227 19.557 91.8237 19.5661 91.8243C19.5864 91.8254 19.6114 91.8258 19.6382 91.8261C19.6932 91.8266 19.7713 91.8259 19.8696 91.8245C20.067 91.8218 20.3537 91.815 20.7161 91.8055C21.4413 91.7864 22.4741 91.7549 23.7113 91.7147C26.1861 91.6344 29.4821 91.5199 32.7799 91.4028C36.0778 91.2856 39.3784 91.1661 41.8623 91.0757C43.1043 91.0304 44.1427 90.9924 44.8742 90.9658C45.2396 90.9525 45.5285 90.9419 45.7281 90.9348C45.8276 90.9312 45.9048 90.9283 45.9582 90.9265C46.0165 90.9244 46.0384 90.923 46.0361 90.923C46.3379 90.9234 46.6022 90.9556 46.8112 91.0147C47.0231 91.0747 47.1551 91.1563 47.2242 91.2394C47.2844 91.3118 47.3174 91.4091 47.2812 91.5615C47.2427 91.7232 47.1256 91.9436 46.8774 92.2271L19.1504 117.331C18.169 118.063 16.9005 118.151 15.9561 117.63C7.90615 109.75 -0.0777973 101.752 -7.9342 93.6966C-8.3983 92.8113 -8.29332 91.6726 -7.56972 90.8047L-7.41471 90.6328L20.2639 65.5725C20.4184 65.4535 20.6314 65.327 20.8384 65.2589C21.0542 65.188 21.1962 65.2002 21.2758 65.2498L21.2778 65.2519Z" stroke="#FBFDFC" stroke-width="0.538012"/>
<path d="M168.953 31.3692C168.824 31.2874 168.733 31.1313 168.681 30.9009C168.63 30.6738 168.626 30.4138 168.637 30.1823L168.637 30.1796C168.638 30.1715 168.646 30.0834 168.662 29.906C168.678 29.7258 168.703 29.4642 168.733 29.1337C168.794 28.4727 168.88 27.5336 168.985 26.406C169.193 24.1506 169.472 21.1396 169.754 18.0921C170.318 11.9995 170.894 5.75053 170.945 5.08218L170.952 4.9941L170.901 4.91937C170.873 4.88479 170.818 4.84114 170.795 4.82844C170.781 4.82199 170.757 4.81284 170.746 4.80968C170.727 4.80437 170.711 4.80149 170.704 4.80053C170.688 4.79837 170.673 4.79735 170.664 4.79684C170.644 4.79571 170.619 4.79529 170.592 4.79502C170.537 4.79447 170.459 4.79522 170.361 4.79659C170.163 4.79934 169.877 4.80612 169.514 4.81563C168.789 4.83466 167.756 4.86623 166.519 4.90639C164.044 4.98672 160.748 5.10116 157.451 5.21834C154.153 5.33553 150.852 5.45502 148.368 5.54544C147.126 5.59065 146.088 5.62873 145.356 5.65532C144.991 5.6686 144.702 5.67916 144.502 5.6863C144.403 5.68986 144.326 5.69279 144.272 5.69464C144.214 5.69665 144.192 5.69806 144.194 5.69806C143.893 5.69769 143.628 5.66545 143.419 5.60639C143.207 5.54644 143.075 5.46483 143.006 5.38172C142.946 5.30929 142.913 5.21197 142.949 5.05958C142.988 4.89793 143.105 4.67754 143.353 4.39403L171.08 -20.7101C172.061 -21.4417 173.33 -21.53 174.274 -21.0087C182.324 -13.1289 190.308 -5.1306 198.165 2.92453C198.629 3.80981 198.524 4.94848 197.8 5.8164L197.645 5.98832L169.967 31.0486C169.812 31.1676 169.599 31.2941 169.392 31.3621C169.176 31.4331 169.034 31.4209 168.955 31.3713L168.953 31.3692Z" stroke="#FBFDFC" stroke-width="0.538012"/>
<path d="M28.2373 35.4162C28.0848 35.6021 27.9221 35.6826 27.7561 35.7096C27.5809 35.738 27.3774 35.7104 27.1447 35.638C26.9124 35.5658 26.672 35.4553 26.4265 35.3366C26.197 35.2255 25.9535 35.1035 25.7336 35.0167L25.733 35.016C13.7729 29.2492 1.7604 23.6114 -10.1799 17.8231C-10.6691 17.4704 -10.9314 17.1114 -10.9852 16.7768C-11.0369 16.455 -10.9069 16.0813 -10.4265 15.6695L17.7104 -4.79835C18.0015 -5.01014 18.3286 -5.16679 18.6722 -5.23623L18.6729 -5.23681C18.8526 -5.27346 19.0207 -5.28365 19.1539 -5.26701L19.1531 -5.26644C19.4389 -5.22764 19.6684 -5.05581 19.8538 -4.79186C19.9939 -4.59247 20.099 -4.35322 20.1733 -4.11595L20.2373 -3.88023C21.1558 0.685509 22.1329 5.24049 23.1244 9.79169L25.1145 18.8965C26.106 23.4492 27.0819 28.0035 27.9988 32.568C28.0719 32.9314 28.2268 33.5302 28.3116 34.1306C28.3536 34.4278 28.3758 34.7098 28.3623 34.9453C28.3483 35.1898 28.2987 35.341 28.2373 35.4162Z" stroke="#FBFDFC" stroke-width="0.538012"/>
<path d="M161.993 61.2088C162.146 61.0229 162.308 60.9424 162.474 60.9154C162.65 60.887 162.853 60.9146 163.086 60.987C163.318 61.0592 163.558 61.1697 163.804 61.2884C164.033 61.3995 164.277 61.5215 164.497 61.6083L164.497 61.609C176.458 67.3758 188.47 73.0136 200.41 78.8019C200.9 79.1546 201.162 79.5136 201.216 79.8482C201.267 80.17 201.137 80.5437 200.657 80.9555L172.52 101.423C172.229 101.635 171.902 101.792 171.558 101.861L171.558 101.862C171.378 101.898 171.21 101.909 171.077 101.892L171.077 101.891C170.792 101.853 170.562 101.681 170.377 101.417C170.237 101.217 170.131 100.978 170.057 100.741L169.993 100.505C169.075 95.9395 168.098 91.3845 167.106 86.8333L165.116 77.7285C164.124 73.1758 163.149 68.6215 162.232 64.057C162.159 63.6936 162.004 63.0948 161.919 62.4944C161.877 62.1972 161.855 61.9152 161.868 61.6797C161.882 61.4352 161.932 61.284 161.993 61.2088Z" stroke="#FBFDFC" stroke-width="0.538012"/>
<path d="M32.54 17.0107C32.5651 17.1294 32.5318 17.2754 32.4326 17.4482C32.3349 17.6184 32.1917 17.7822 32.0547 17.9219L32.0527 17.9238C32.0497 17.9265 31.9962 17.9772 31.8838 18.083C31.772 18.1883 31.6105 18.3413 31.4053 18.5342C30.9945 18.9202 30.4101 19.4677 29.709 20.126C28.3067 21.4425 26.4347 23.1996 24.54 24.9785C20.7522 28.5349 16.8678 32.1848 16.458 32.5811L16.3945 32.6416L16.3799 32.7285C16.376 32.7707 16.3831 32.8362 16.3896 32.8594C16.3947 32.8733 16.4045 32.8954 16.4092 32.9043C16.4181 32.9208 16.4269 32.9333 16.4307 32.9385C16.4392 32.95 16.4479 32.9599 16.4531 32.9658C16.4647 32.979 16.4798 32.9949 16.4951 33.0107C16.5265 33.0432 16.5712 33.0888 16.6279 33.1445C16.7423 33.2569 16.9101 33.4181 17.1221 33.6211C17.5464 34.0274 18.1529 34.6031 18.8809 35.291C20.3374 36.6674 22.282 38.4957 24.2285 40.3232C26.175 42.1508 28.1245 43.9784 29.5918 45.3535C30.3253 46.041 30.9381 46.6156 31.3701 47.0205C31.5861 47.2229 31.7571 47.3826 31.875 47.4932C31.9338 47.5484 31.9793 47.5915 32.0107 47.6211C32.0452 47.6535 32.0573 47.6648 32.0557 47.6631C32.2254 47.8353 32.3559 48.0047 32.4395 48.1592C32.5243 48.3162 32.5504 48.4393 32.543 48.5264C32.5365 48.6007 32.5042 48.6709 32.4092 48.7383C32.3058 48.8116 32.1252 48.8822 31.8291 48.9189L1.75195 48.9189C0.807382 48.8215 0.0485563 48.1668 -0.191408 47.3018C-0.296403 37.6404 -0.296404 27.9417 -0.191406 18.2803C0.046412 17.4582 0.742178 16.8137 1.62012 16.6826L1.7998 16.6631L31.834 16.6631C31.9824 16.6766 32.1635 16.7182 32.3096 16.7891C32.4631 16.8636 32.5255 16.9431 32.54 17.0078L32.54 17.0107Z" stroke="#FBFDFC" stroke-width="0.538012"/>
<path d="M157.689 79.6104C157.664 79.4917 157.698 79.3456 157.797 79.1729C157.895 79.0027 158.038 78.8389 158.175 78.6992L158.177 78.6973C158.18 78.6946 158.233 78.6439 158.346 78.5381C158.458 78.4328 158.619 78.2798 158.824 78.0869C159.235 77.7009 159.819 77.1534 160.521 76.4951C161.923 75.1786 163.795 73.4215 165.689 71.6426C169.477 68.0862 173.362 64.4363 173.771 64.04L173.835 63.9795L173.85 63.8926C173.854 63.8504 173.846 63.7849 173.84 63.7617C173.835 63.7478 173.825 63.7257 173.82 63.7168C173.811 63.7003 173.803 63.6878 173.799 63.6826C173.79 63.6711 173.782 63.6612 173.776 63.6553C173.765 63.6421 173.75 63.6261 173.734 63.6104C173.703 63.5779 173.658 63.5323 173.602 63.4766C173.487 63.3642 173.319 63.203 173.107 63C172.683 62.5937 172.077 62.018 171.349 61.3301C169.892 59.9537 167.948 58.1254 166.001 56.2979C164.054 54.4703 162.105 52.6426 160.638 51.2676C159.904 50.5801 159.291 50.0055 158.859 49.6006C158.643 49.3982 158.472 49.2385 158.354 49.1279C158.296 49.0727 158.25 49.0296 158.219 49C158.184 48.9676 158.172 48.9563 158.174 48.958C158.004 48.7858 157.874 48.6164 157.79 48.4619C157.705 48.3049 157.679 48.1818 157.687 48.0947C157.693 48.0204 157.725 47.9502 157.82 47.8828C157.924 47.8095 158.104 47.7389 158.4 47.7021L188.478 47.7021C189.422 47.7996 190.181 48.4543 190.421 49.3193C190.526 58.9807 190.526 68.6794 190.421 78.3408C190.183 79.1628 189.487 79.8074 188.609 79.9385L188.43 79.958L158.396 79.958C158.247 79.9445 158.066 79.9029 157.92 79.832C157.766 79.7575 157.704 79.678 157.689 79.6133L157.689 79.6104Z" stroke="#FBFDFC" stroke-width="0.538012"/>
<path d="M27.1611 45.1748C27.1848 45.2869 27.1532 45.4262 27.0576 45.5928C26.9636 45.7566 26.8257 45.9147 26.6934 46.0498L26.6914 46.0518C26.6913 46.0517 26.6401 46.1007 26.5283 46.2061C26.4201 46.3081 26.2632 46.4557 26.0645 46.6426C25.6669 47.0166 25.1014 47.5478 24.4229 48.1855C23.0659 49.4609 21.2543 51.1626 19.4209 52.8857C15.7552 56.331 11.9961 59.8672 11.5996 60.251L11.5361 60.3115L11.5215 60.3975C11.5175 60.4396 11.5247 60.5061 11.5312 60.5293C11.5363 60.5433 11.5462 60.5654 11.5508 60.5742C11.5597 60.5907 11.5685 60.6033 11.5723 60.6084C11.5808 60.62 11.5897 60.63 11.5947 60.6357C11.606 60.6486 11.6201 60.6635 11.6348 60.6787C11.6652 60.7102 11.7096 60.7544 11.7646 60.8086C11.8753 60.9175 12.0372 61.074 12.2422 61.2705C12.6529 61.6642 13.2397 62.2221 13.9443 62.8887C15.3538 64.222 17.2355 65.9923 19.1191 67.7627C21.0029 69.5332 22.8896 71.3036 24.3096 72.6357C25.0196 73.3018 25.6131 73.8587 26.0312 74.251C26.2402 74.447 26.4055 74.6019 26.5195 74.709C26.6316 74.8143 26.6889 74.8669 26.6943 74.8721L26.6934 74.873C26.8574 75.0396 26.9831 75.2036 27.0635 75.3525C27.1451 75.5038 27.1701 75.621 27.1631 75.7031C27.1571 75.7727 27.1271 75.8384 27.0371 75.9023C26.9389 75.9721 26.7662 76.0397 26.4814 76.0752L-2.63184 76.0752C-3.53864 75.9788 -4.26696 75.3486 -4.49805 74.5166C-4.59963 65.1589 -4.59961 55.765 -4.49805 46.4072C-4.26931 45.6132 -3.5992 44.9901 -2.75293 44.8633L-2.5791 44.8447L26.4854 44.8447C26.6281 44.8578 26.8023 44.8978 26.9424 44.9658C27.0898 45.0374 27.1478 45.1128 27.1611 45.1719L27.1611 45.1748Z" stroke="#FBFDFC" stroke-width="0.538012"/>
<path d="M163.068 51.4482C163.045 51.3361 163.076 51.1968 163.172 51.0303C163.266 50.8664 163.404 50.7084 163.536 50.5732L163.538 50.5713C163.538 50.5713 163.589 50.5224 163.701 50.417C163.809 50.315 163.966 50.1674 164.165 49.9805C164.563 49.6065 165.128 49.0752 165.807 48.4375C167.164 47.1621 168.975 45.4605 170.809 43.7373C174.474 40.292 178.233 36.7559 178.63 36.3721L178.693 36.3115L178.708 36.2256C178.712 36.1835 178.705 36.117 178.698 36.0938C178.693 36.0798 178.683 36.0576 178.679 36.0488C178.67 36.0324 178.661 36.0197 178.657 36.0146C178.649 36.0031 178.64 35.9931 178.635 35.9873C178.623 35.9744 178.609 35.9595 178.595 35.9443C178.564 35.9128 178.52 35.8686 178.465 35.8145C178.354 35.7056 178.192 35.549 177.987 35.3525C177.577 34.9589 176.99 34.4009 176.285 33.7344C174.876 32.401 172.994 30.6307 171.11 28.8604C169.227 27.0899 167.34 25.3194 165.92 23.9873C165.21 23.3212 164.616 22.7644 164.198 22.3721C163.989 22.176 163.824 22.0212 163.71 21.9141C163.598 21.8088 163.541 21.7561 163.535 21.751L163.536 21.75C163.372 21.5834 163.246 21.4195 163.166 21.2705C163.084 21.1193 163.059 21.0021 163.066 20.9199C163.072 20.8504 163.102 20.7847 163.192 20.7207C163.291 20.651 163.463 20.5834 163.748 20.5479L192.861 20.5479C193.768 20.6443 194.496 21.2744 194.728 22.1064C194.829 31.4642 194.829 40.8581 194.728 50.2158C194.499 51.0099 193.829 51.6329 192.982 51.7598L192.809 51.7783L163.744 51.7783C163.601 51.7653 163.427 51.7253 163.287 51.6572C163.14 51.5856 163.082 51.5102 163.068 51.4512L163.068 51.4482Z" stroke="#FBFDFC" stroke-width="0.538012"/>
<path d="M46.6163 63.5508C46.9555 63.8783 47.0882 64.2102 47.1018 64.5432C47.1158 64.8864 47.0037 65.2548 46.8087 65.6436C46.614 66.0313 46.3469 66.4194 46.0712 66.8031C45.8055 67.1729 45.5269 67.5463 45.3217 67.888L45.3208 67.8885C31.9386 86.569 18.774 105.38 5.35442 124.025C4.56757 124.79 3.78609 125.195 3.06829 125.211C2.36818 125.227 1.65371 124.874 0.984352 123.952L-30.3006 72.2685C-30.5935 71.7845 -30.8025 71.2583 -30.8849 70.7171L-30.913 70.4843C-30.9406 70.1601 -30.9203 69.8524 -30.8508 69.6053L-30.8503 69.6062C-30.691 69.0618 -30.2628 68.6758 -29.6959 68.4081C-29.1304 68.1409 -28.4533 68.0051 -27.854 67.9522C-19.2212 67.4526 -10.5946 66.8519 -1.97074 66.2267L15.2749 64.966C23.8974 64.3415 32.5205 63.743 41.1487 63.2458C41.8183 63.2069 42.9808 63.0824 44.1144 63.0768C44.6782 63.074 45.2187 63.1012 45.669 63.1805C46.0726 63.2516 46.3668 63.3581 46.5466 63.4923L46.6163 63.5508Z" stroke="#FBFDFC" stroke-width="0.538012"/>
<path d="M143.613 33.0722C143.274 32.7447 143.141 32.4128 143.128 32.0799C143.114 31.7367 143.226 31.3682 143.421 30.9795C143.615 30.5918 143.883 30.2036 144.158 29.8199C144.424 29.4502 144.703 29.0768 144.908 28.735L144.909 28.7345C158.291 10.0541 171.456 -8.75693 184.875 -27.4022C185.662 -28.167 186.443 -28.5722 187.161 -28.5883C187.861 -28.604 188.576 -28.2506 189.245 -27.3294L220.53 24.3546C220.823 24.8386 221.032 25.3648 221.114 25.9059L221.142 26.1388C221.17 26.4629 221.15 26.7706 221.08 27.0177L221.08 27.0169C220.921 27.5612 220.492 27.9472 219.925 28.215C219.36 28.4821 218.683 28.6179 218.083 28.6709C209.451 29.1705 200.824 29.7712 192.2 30.3963L174.955 31.657C166.332 32.2815 157.709 32.8801 149.081 33.3773C148.411 33.4161 147.249 33.5407 146.115 33.5463C145.551 33.5491 145.011 33.5219 144.56 33.4426C144.157 33.3715 143.863 33.2649 143.683 33.1308L143.613 33.0722Z" stroke="#FBFDFC" stroke-width="0.538012"/>
<path d="M94.7175 23.0707C94.9919 23.0179 95.2791 23.2314 95.4685 23.4007C95.5174 23.4436 104.489 32.1633 105.001 32.6466C105.055 32.6552 114.508 23.4448 114.557 23.4007C115.038 22.9689 115.57 22.8621 115.672 23.6362V41.484C115.602 42.117 115.116 42.6286 114.472 42.7832C108.174 42.8457 101.851 42.8457 95.5522 42.7832C94.9043 42.6212 94.4007 42.1023 94.353 41.4546V23.6362C94.3723 23.4301 94.4767 23.1173 94.7163 23.0707H94.7175Z" fill="#FBFDFC"/>
<path d="M72.8031 42.5455C72.521 42.2719 72.6356 41.8193 72.7863 41.5077C75.7578 35.8279 78.5349 30.0548 81.5077 24.3762C81.6752 24.0561 82.0616 23.1691 82.4287 23.0771C83.0444 22.9238 83.2389 23.6696 83.4759 24.0524C86.4551 29.9395 89.5026 35.7984 92.4677 41.6904C92.6506 42.3075 92.4626 42.7663 91.7451 42.8215H73.6403C73.4368 42.8215 73.232 42.7859 73.0478 42.7025C72.9525 42.6596 72.8662 42.6056 72.8031 42.5455Z" fill="#FBFDFC"/>
<path d="M70.9392 54.3802H74.6193L77.1507 60.5491H77.2783L79.8097 54.3802H83.4898V65.2715H80.5967V58.9749H80.5117L78.0866 65.1864H76.3423L73.9173 58.9324H73.8322V65.2715H70.9392V54.3802ZM91.3365 54.3802H94.2933V61.3574C94.2933 62.187 94.0948 62.905 93.6977 63.5112C93.3042 64.1139 92.7547 64.5801 92.0491 64.9099C91.3436 65.236 90.5246 65.3991 89.5922 65.3991C88.6527 65.3991 87.8302 65.236 87.1246 64.9099C86.4191 64.5801 85.8696 64.1139 85.476 63.5112C85.0861 62.905 84.8911 62.187 84.8911 61.3574V54.3802H87.8479V61.1021C87.8479 61.439 87.9223 61.7403 88.0712 62.0062C88.2201 62.2686 88.4258 62.4742 88.6881 62.6231C88.954 62.772 89.2554 62.8465 89.5922 62.8465C89.9326 62.8465 90.2339 62.772 90.4963 62.6231C90.7586 62.4742 90.9643 62.2686 91.1132 62.0062C91.2621 61.7403 91.3365 61.439 91.3365 61.1021V54.3802ZM101.57 57.7837C101.541 57.4292 101.408 57.1526 101.171 56.9541C100.937 56.7555 100.581 56.6563 100.102 56.6563C99.7971 56.6563 99.5471 56.6935 99.3521 56.7679C99.1607 56.8389 99.0189 56.9364 98.9267 57.0604C98.8345 57.1845 98.7866 57.3263 98.7831 57.4859C98.776 57.6171 98.799 57.7358 98.8522 57.8422C98.909 57.945 98.9976 58.039 99.1181 58.124C99.2387 58.2056 99.3929 58.28 99.5808 58.3474C99.7687 58.4148 99.9921 58.475 100.251 58.5282L101.144 58.7197C101.747 58.8473 102.263 59.0157 102.692 59.2249C103.121 59.4341 103.472 59.6805 103.745 59.9641C104.018 60.2442 104.218 60.5597 104.346 60.9107C104.477 61.2617 104.544 61.6446 104.548 62.0594C104.544 62.7756 104.365 63.3818 104.011 63.8782C103.656 64.3745 103.149 64.7521 102.49 65.0109C101.834 65.2697 101.045 65.3991 100.123 65.3991C99.1766 65.3991 98.3506 65.2591 97.645 64.979C96.9431 64.6989 96.3971 64.2681 96.0071 63.6867C95.6206 63.1017 95.4256 62.3537 95.4221 61.4425H98.23C98.2477 61.7758 98.3311 62.0558 98.48 62.2827C98.6289 62.5097 98.838 62.6816 99.1075 62.7986C99.3805 62.9156 99.7049 62.9741 100.081 62.9741C100.396 62.9741 100.66 62.9351 100.873 62.8571C101.086 62.7791 101.247 62.671 101.357 62.5327C101.467 62.3944 101.524 62.2367 101.527 62.0594C101.524 61.8928 101.469 61.7474 101.362 61.6233C101.26 61.4957 101.089 61.3822 100.852 61.283C100.614 61.1801 100.293 61.0844 99.8892 60.9958L98.8044 60.7618C97.84 60.5526 97.0795 60.2034 96.5229 59.7141C95.9699 59.2213 95.6951 58.5495 95.6986 57.6986C95.6951 57.0073 95.8794 56.4028 96.2517 55.8852C96.6275 55.364 97.1469 54.958 97.8099 54.6673C98.4764 54.3766 99.2404 54.2312 100.102 54.2312C100.981 54.2312 101.742 54.3784 102.383 54.6726C103.025 54.9669 103.52 55.3817 103.867 55.9171C104.218 56.4489 104.395 57.0711 104.399 57.7837H101.57ZM105.673 65.2715V54.3802H113.522V56.7626H108.629V58.6346H113.118V61.0171H108.629V62.889H113.501V65.2715H105.673ZM117.945 54.3802V65.2715H114.988V54.3802H117.945Z" fill="#FBFDFC"/>
<path d="M71.3687 52.8047H70.1077L71.5284 48.5006H73.1256L74.5463 52.8047H73.2854L72.3438 49.6859H72.3102L71.3687 52.8047ZM71.1333 51.1066H73.5039V51.9809H71.1333V51.1066ZM74.9609 52.8047V48.5006H76.8271C77.155 48.5006 77.4303 48.5447 77.653 48.633C77.8772 48.7213 78.046 48.846 78.1595 49.0071C78.2744 49.1682 78.3319 49.358 78.3319 49.5766C78.3319 49.7349 78.2968 49.8792 78.2268 50.0095C78.1581 50.1398 78.0614 50.2491 77.9367 50.3374C77.8121 50.4243 77.6663 50.4845 77.4996 50.5181V50.5602C77.6846 50.5672 77.8527 50.6141 78.004 50.701C78.1553 50.7864 78.2758 50.9048 78.3655 51.0561C78.4551 51.2061 78.5 51.3826 78.5 51.5858C78.5 51.8211 78.4383 52.0306 78.315 52.2141C78.1931 52.3977 78.0194 52.542 77.7938 52.6471C77.5683 52.7521 77.2993 52.8047 76.9868 52.8047H74.9609ZM76.1294 51.8716H76.6758C76.8719 51.8716 77.019 51.8351 77.1171 51.7623C77.2152 51.688 77.2642 51.5787 77.2642 51.4344C77.2642 51.3336 77.2411 51.2481 77.1949 51.178C77.1486 51.108 77.0828 51.0547 76.9973 51.0183C76.9133 50.9819 76.8117 50.9637 76.6926 50.9637H76.1294V51.8716ZM76.1294 50.2407H76.6085C76.7108 50.2407 76.8012 50.2246 76.8796 50.1924C76.9581 50.1602 77.019 50.1139 77.0625 50.0537C77.1073 49.992 77.1297 49.9171 77.1297 49.8288C77.1297 49.6957 77.0821 49.5941 76.9868 49.5241C76.8915 49.4526 76.7711 49.4169 76.6253 49.4169H76.1294V50.2407ZM78.914 52.8047V48.5006H80.7802C81.1081 48.5006 81.3834 48.5447 81.6062 48.633C81.8303 48.7213 81.9992 48.846 82.1126 49.0071C82.2275 49.1682 82.285 49.358 82.285 49.5766C82.285 49.7349 82.25 49.8792 82.1799 50.0095C82.1112 50.1398 82.0146 50.2491 81.8899 50.3374C81.7652 50.4243 81.6195 50.4845 81.4527 50.5181V50.5602C81.6377 50.5672 81.8058 50.6141 81.9571 50.701C82.1084 50.7864 82.2289 50.9048 82.3186 51.0561C82.4083 51.2061 82.4531 51.3826 82.4531 51.5858C82.4531 51.8211 82.3915 52.0306 82.2682 52.2141C82.1463 52.3977 81.9725 52.542 81.747 52.6471C81.5214 52.7521 81.2524 52.8047 80.9399 52.8047H78.914ZM80.0825 51.8716H80.6289C80.8251 51.8716 80.9722 51.8351 81.0702 51.7623C81.1683 51.688 81.2174 51.5787 81.2174 51.4344C81.2174 51.3336 81.1942 51.2481 81.148 51.178C81.1018 51.108 81.0359 51.0547 80.9505 51.0183C80.8664 50.9819 80.7648 50.9637 80.6457 50.9637H80.0825V51.8716ZM80.0825 50.2407H80.5617C80.6639 50.2407 80.7543 50.2246 80.8328 50.1924C80.9112 50.1602 80.9722 50.1139 81.0156 50.0537C81.0604 49.992 81.0829 49.9171 81.0829 49.8288C81.0829 49.6957 81.0352 49.5941 80.9399 49.5241C80.8447 49.4526 80.7242 49.4169 80.5785 49.4169H80.0825V50.2407ZM87.0367 50.6526C87.0367 51.1318 86.9435 51.536 86.7572 51.8653C86.5709 52.1931 86.3194 52.4418 86.0027 52.6113C85.6861 52.7795 85.333 52.8635 84.9435 52.8635C84.5512 52.8635 84.1967 52.7788 83.8801 52.6092C83.5649 52.4383 83.3141 52.1889 83.1277 51.8611C82.9428 51.5318 82.8503 51.129 82.8503 50.6526C82.8503 50.1735 82.9428 49.77 83.1277 49.4421C83.3141 49.1129 83.5649 48.8642 83.8801 48.696C84.1967 48.5265 84.5512 48.4417 84.9435 48.4417C85.333 48.4417 85.6861 48.5265 86.0027 48.696C86.3194 48.8642 86.5709 49.1129 86.7572 49.4421C86.9435 49.77 87.0367 50.1735 87.0367 50.6526ZM85.8346 50.6526C85.8346 50.3948 85.8003 50.1777 85.7316 50.0011C85.6644 49.8232 85.5642 49.6887 85.4311 49.5976C85.2994 49.5052 85.1369 49.4589 84.9435 49.4589C84.7502 49.4589 84.5869 49.5052 84.4538 49.5976C84.3221 49.6887 84.222 49.8232 84.1533 50.0011C84.0861 50.1777 84.0524 50.3948 84.0524 50.6526C84.0524 50.9104 84.0861 51.1283 84.1533 51.3062C84.222 51.4828 84.3221 51.6173 84.4538 51.7097C84.5869 51.8008 84.7502 51.8464 84.9435 51.8464C85.1369 51.8464 85.2994 51.8008 85.4311 51.7097C85.5642 51.6173 85.6644 51.4828 85.7316 51.3062C85.8003 51.1283 85.8346 50.9104 85.8346 50.6526ZM91.3014 48.5006V52.8047H90.3263L88.7711 50.5434H88.7458V52.8047H87.5774V48.5006H88.5693L90.0993 50.7535H90.1329V48.5006H91.3014ZM92.9722 52.8047H91.7112L93.1319 48.5006H94.7291L96.1498 52.8047H94.8888L93.9473 49.6859H93.9137L92.9722 52.8047ZM92.7368 51.1066H95.1074V51.9809H92.7368V51.1066ZM96.5644 48.5006H98.0187L99.019 50.9385H99.0695L100.07 48.5006H101.524V52.8047H100.381V50.3164H100.347L99.3889 52.7711H98.6996L97.7413 50.2996H97.7076V52.8047H96.5644V48.5006ZM102.078 52.8047V48.5006H105.18V49.4421H103.246V50.1819H105.02V51.1234H103.246V51.8632H105.171V52.8047H102.078ZM109.483 48.5006V52.8047H108.508L106.953 50.5434H106.928V52.8047H105.759V48.5006H106.751L108.281 50.7535H108.315V48.5006H109.483ZM109.918 49.4421V48.5006H113.659V49.4421H112.365V52.8047H111.213V49.4421H109.918ZM118.066 50.6526C118.066 51.1318 117.973 51.536 117.787 51.8653C117.601 52.1931 117.349 52.4418 117.032 52.6113C116.716 52.7795 116.363 52.8635 115.973 52.8635C115.581 52.8635 115.226 52.7788 114.91 52.6092C114.595 52.4383 114.344 52.1889 114.157 51.8611C113.973 51.5318 113.88 51.129 113.88 50.6526C113.88 50.1735 113.973 49.77 114.157 49.4421C114.344 49.1129 114.595 48.8642 114.91 48.696C115.226 48.5265 115.581 48.4417 115.973 48.4417C116.363 48.4417 116.716 48.5265 117.032 48.696C117.349 48.8642 117.601 49.1129 117.787 49.4421C117.973 49.77 118.066 50.1735 118.066 50.6526ZM116.864 50.6526C116.864 50.3948 116.83 50.1777 116.761 50.0011C116.694 49.8232 116.594 49.6887 116.461 49.5976C116.329 49.5052 116.167 49.4589 115.973 49.4589C115.78 49.4589 115.617 49.5052 115.484 49.5976C115.352 49.6887 115.252 49.8232 115.183 50.0011C115.116 50.1777 115.082 50.3948 115.082 50.6526C115.082 50.9104 115.116 51.1283 115.183 51.3062C115.252 51.4828 115.352 51.6173 115.484 51.7097C115.617 51.8008 115.78 51.8464 115.973 51.8464C116.167 51.8464 116.329 51.8008 116.461 51.7097C116.594 51.6173 116.694 51.4828 116.761 51.3062C116.83 51.1283 116.864 50.9104 116.864 50.6526Z" fill="#FBFDFC"/>
<path d="M82.4396 78.0313C82.4396 78.2975 82.3769 78.5485 82.2513 78.7846C82.1258 79.0206 81.9249 79.2139 81.6488 79.3645C81.3726 79.5102 81.0186 79.583 80.5867 79.583H79.6377V81.707H78.779V76.4722H80.5867C80.9885 76.4722 81.3274 76.5425 81.6036 76.6831C81.8848 76.8187 82.0932 77.0045 82.2287 77.2405C82.3693 77.4765 82.4396 77.7401 82.4396 78.0313ZM80.5867 78.8825C80.9131 78.8825 81.1567 78.8097 81.3174 78.664C81.478 78.5134 81.5584 78.3025 81.5584 78.0313C81.5584 77.4589 81.2345 77.1727 80.5867 77.1727H79.6377V78.8825H80.5867ZM84.1173 76.4722V81.707H83.2586V76.4722H84.1173ZM86.1033 77.1651V78.7017H87.911V79.4022H86.1033V81.0065H88.137V81.707H85.2446V76.4646H88.137V77.1651H86.1033ZM94.7081 76.4722V81.707H93.8495V78.1217L92.2526 81.707H91.6576L90.0533 78.1217V81.707H89.1946V76.4722H90.121L91.9589 80.5772L93.7892 76.4722H94.7081ZM98.2244 81.7598C97.7373 81.7598 97.2879 81.6468 96.8762 81.4208C96.4694 81.1898 96.1455 80.871 95.9045 80.4642C95.6685 80.0525 95.5505 79.5905 95.5505 79.0783C95.5505 78.5661 95.6685 78.1067 95.9045 77.6999C96.1455 77.2932 96.4694 76.9768 96.8762 76.7509C97.2879 76.5199 97.7373 76.4044 98.2244 76.4044C98.7165 76.4044 99.1659 76.5199 99.5727 76.7509C99.9844 76.9768 100.308 77.2932 100.544 77.6999C100.78 78.1067 100.898 78.5661 100.898 79.0783C100.898 79.5905 100.78 80.0525 100.544 80.4642C100.308 80.871 99.9844 81.1898 99.5727 81.4208C99.1659 81.6468 98.7165 81.7598 98.2244 81.7598ZM98.2244 81.0141C98.5709 81.0141 98.8797 80.9362 99.1509 80.7806C99.422 80.6199 99.6329 80.3939 99.7836 80.1027C99.9392 79.8064 100.017 79.465 100.017 79.0783C100.017 78.6917 99.9392 78.3527 99.7836 78.0615C99.6329 77.7702 99.422 77.5468 99.1509 77.3911C98.8797 77.2354 98.5709 77.1576 98.2244 77.1576C97.8779 77.1576 97.5691 77.2354 97.298 77.3911C97.0268 77.5468 96.8134 77.7702 96.6577 78.0615C96.5071 78.3527 96.4318 78.6917 96.4318 79.0783C96.4318 79.465 96.5071 79.8064 96.6577 80.1027C96.8134 80.3939 97.0268 80.6199 97.298 80.7806C97.5691 80.9362 97.8779 81.0141 98.2244 81.0141ZM106.044 81.707H105.185L102.602 77.7978V81.707H101.743V76.4646H102.602L105.185 80.3663V76.4646H106.044V81.707ZM110.554 76.4722V77.1727H109.16V81.707H108.302V77.1727H106.901V76.4722H110.554ZM112.282 77.1651V78.7017H114.09V79.4022H112.282V81.0065H114.316V81.707H111.423V76.4646H114.316V77.1651H112.282Z" fill="#FBFDFC"/>
</g>
</g>
<defs>
<filter id="filter0_d_1398_1004" x="-0.000191212" y="0" width="188.304" height="101.146" filterUnits="userSpaceOnUse" color-interpolation-filters="sRGB">
<feFlood flood-opacity="0" result="BackgroundImageFix"/>
<feColorMatrix in="SourceAlpha" type="matrix" values="0 0 0 0 0 0 0 0 0 0 0 0 0 0 0 0 0 0 127 0" result="hardAlpha"/>
<feOffset dy="2.15205"/>
<feGaussianBlur stdDeviation="1.07602"/>
<feComposite in2="hardAlpha" operator="out"/>
<feColorMatrix type="matrix" values="0 0 0 0 0 0 0 0 0 0 0 0 0 0 0 0 0 0 0.25 0"/>
<feBlend mode="normal" in2="BackgroundImageFix" result="effect1_dropShadow_1398_1004"/>
<feBlend mode="normal" in="SourceGraphic" in2="effect1_dropShadow_1398_1004" result="shape"/>
</filter>
<clipPath id="clip0_1398_1004">
<rect x="2.15186" width="184" height="96.8421" rx="16.0704" fill="white"/>
</clipPath>
</defs>
</svg>
