<svg width="189" height="102" viewBox="0 0 189 102" fill="none" xmlns="http://www.w3.org/2000/svg">
<g filter="url(#filter0_d_1398_985)">
<g clip-path="url(#clip0_1398_985)">
<rect x="2.15186" width="184" height="96.8421" rx="16.0704" fill="#20882A"/>
<path d="M21.2793 65.2519C21.4077 65.3337 21.4991 65.4898 21.5511 65.7202C21.6023 65.9473 21.6059 66.2073 21.5945 66.4388L21.5945 66.4415C21.5937 66.4496 21.586 66.5377 21.5699 66.7151C21.5535 66.8953 21.5291 67.1569 21.4987 67.4874C21.4379 68.1484 21.3516 69.0875 21.2473 70.2151C21.0387 72.4705 20.7596 75.4815 20.4778 78.529C19.9144 84.6216 19.3384 90.8706 19.2869 91.5389L19.2797 91.627L19.3309 91.7017C19.3592 91.7363 19.4138 91.78 19.4368 91.7927C19.451 91.7991 19.4754 91.8083 19.4859 91.8114C19.5049 91.8167 19.5212 91.8196 19.5281 91.8206C19.5436 91.8227 19.5585 91.8237 19.5676 91.8243C19.5878 91.8254 19.6129 91.8258 19.6397 91.8261C19.6946 91.8266 19.7728 91.8259 19.8711 91.8245C20.0685 91.8218 20.3552 91.815 20.7176 91.8055C21.4428 91.7864 22.4756 91.7549 23.7127 91.7147C26.1875 91.6344 29.4836 91.5199 32.7813 91.4028C36.0792 91.2856 39.3798 91.1661 41.8637 91.0757C43.1057 91.0304 44.1442 90.9924 44.8757 90.9658C45.2411 90.9525 45.53 90.9419 45.7295 90.9348C45.8291 90.9312 45.9063 90.9283 45.9596 90.9265C46.0179 90.9244 46.0398 90.923 46.0375 90.923C46.3394 90.9234 46.6036 90.9556 46.8126 91.0147C47.0246 91.0747 47.1565 91.1563 47.2257 91.2394C47.2858 91.3118 47.3189 91.4091 47.2827 91.5615C47.2441 91.7232 47.1271 91.9436 46.8789 92.2271L19.1518 117.331C18.1704 118.063 16.902 118.151 15.9576 117.63C7.90761 109.75 -0.0763324 101.752 -7.93273 93.6966C-8.39684 92.8113 -8.29186 91.6726 -7.56825 90.8047L-7.41324 90.6328L20.2653 65.5725C20.4199 65.4535 20.6328 65.327 20.8398 65.2589C21.0557 65.188 21.1977 65.2002 21.2772 65.2498L21.2793 65.2519Z" stroke="#FBFDFC" stroke-width="0.538012"/>
<path d="M168.954 31.3731C168.826 31.2913 168.734 31.1352 168.682 30.9048C168.631 30.6777 168.627 30.4177 168.639 30.1862L168.639 30.1835C168.64 30.1754 168.647 30.0873 168.664 29.9099C168.68 29.7297 168.704 29.4681 168.735 29.1376C168.796 28.4766 168.882 27.5375 168.986 26.4099C169.195 24.1545 169.474 21.1435 169.756 18.096C170.319 12.0034 170.895 5.75444 170.946 5.08609L170.954 4.99801L170.902 4.92328C170.874 4.88869 170.82 4.84505 170.797 4.83235C170.782 4.8259 170.758 4.81675 170.748 4.81359C170.729 4.80828 170.712 4.8054 170.705 4.80444C170.69 4.80228 170.675 4.80126 170.666 4.80075C170.646 4.79962 170.621 4.79919 170.594 4.79892C170.539 4.79837 170.461 4.79912 170.362 4.80049C170.165 4.80325 169.878 4.81003 169.516 4.81954C168.791 4.83857 167.758 4.87014 166.521 4.9103C164.046 4.99063 160.75 5.10507 157.452 5.22225C154.154 5.33944 150.854 5.45893 148.37 5.54935C147.128 5.59456 146.089 5.63264 145.358 5.65922C144.992 5.67251 144.703 5.68307 144.504 5.69021C144.404 5.69377 144.327 5.6967 144.274 5.69854C144.215 5.70056 144.194 5.70197 144.196 5.70197C143.894 5.7016 143.63 5.66935 143.421 5.6103C143.209 5.55034 143.077 5.46873 143.008 5.38562C142.948 5.3132 142.915 5.21587 142.951 5.06349C142.989 4.90183 143.106 4.68145 143.354 4.39794L171.082 -20.7062C172.063 -21.4378 173.331 -21.5261 174.276 -21.0048C182.326 -13.125 190.31 -5.12669 198.166 2.92843C198.63 3.81371 198.525 4.95238 197.802 5.8203L197.647 5.99223L169.968 31.0525C169.813 31.1715 169.601 31.298 169.394 31.3661C169.178 31.437 169.036 31.4248 168.956 31.3752L168.954 31.3731Z" stroke="#FBFDFC" stroke-width="0.538012"/>
<path d="M28.2388 35.4182C28.0862 35.6041 27.9236 35.6846 27.7575 35.7115C27.5824 35.74 27.3789 35.7123 27.1462 35.64C26.9139 35.5677 26.6735 35.4573 26.428 35.3385C26.1985 35.2274 25.955 35.1054 25.7351 35.0187L25.7345 35.0179C13.7744 29.2511 1.76187 23.6133 -10.1784 17.825C-10.6677 17.4724 -10.9299 17.1133 -10.9838 16.7788C-11.0354 16.457 -10.9054 16.0832 -10.425 15.6715L17.7118 -4.7964C18.003 -5.00818 18.3301 -5.16484 18.6736 -5.23428L18.6744 -5.23485C18.854 -5.27151 19.0222 -5.2817 19.1554 -5.26506L19.1546 -5.26448C19.4403 -5.22569 19.6699 -5.05386 19.8553 -4.7899C19.9954 -4.59051 20.1005 -4.35127 20.1748 -4.11399L20.2388 -3.87828C21.1572 0.687462 22.1344 5.24244 23.1258 9.79364L25.116 18.8984C26.1075 23.4511 27.0834 28.0055 28.0002 32.57C28.0734 32.9333 28.2282 33.5322 28.3131 34.1325C28.355 34.4297 28.3773 34.7117 28.3638 34.9473C28.3498 35.1918 28.3001 35.3429 28.2388 35.4182Z" stroke="#FBFDFC" stroke-width="0.538012"/>
<path d="M161.994 61.2068C162.147 61.0209 162.309 60.9404 162.475 60.9135C162.651 60.885 162.854 60.9127 163.087 60.985C163.319 61.0573 163.559 61.1677 163.805 61.2865C164.034 61.3976 164.278 61.5196 164.498 61.6063L164.498 61.6071C176.459 67.3739 188.471 73.0117 200.411 78.8C200.901 79.1526 201.163 79.5117 201.217 79.8462C201.268 80.168 201.138 80.5418 200.658 80.9535L172.521 101.421C172.23 101.633 171.903 101.79 171.559 101.859L171.559 101.86C171.379 101.897 171.211 101.907 171.078 101.89L171.078 101.889C170.793 101.851 170.563 101.679 170.378 101.415C170.238 101.216 170.132 100.976 170.058 100.739L169.994 100.503C169.076 95.9375 168.099 91.3826 167.107 86.8314L165.117 77.7266C164.125 73.1739 163.15 68.6195 162.233 64.055C162.16 63.6917 162.005 63.0928 161.92 62.4925C161.878 62.1953 161.856 61.9133 161.869 61.6777C161.883 61.4332 161.933 61.2821 161.994 61.2068Z" stroke="#FBFDFC" stroke-width="0.538012"/>
<path d="M32.5415 17.0107C32.5665 17.1294 32.5333 17.2754 32.4341 17.4482C32.3364 17.6184 32.1932 17.7822 32.0562 17.9219L32.0542 17.9238C32.0512 17.9265 31.9976 17.9772 31.8853 18.083C31.7734 18.1883 31.612 18.3413 31.4067 18.5342C30.996 18.9202 30.4115 19.4677 29.7104 20.126C28.3082 21.4425 26.4362 23.1996 24.5415 24.9785C20.7537 28.5349 16.8693 32.1848 16.4595 32.5811L16.396 32.6416L16.3813 32.7285C16.3774 32.7707 16.3846 32.8362 16.3911 32.8594C16.3961 32.8733 16.406 32.8954 16.4106 32.9043C16.4196 32.9208 16.4283 32.9333 16.4321 32.9385C16.4406 32.95 16.4494 32.9599 16.4546 32.9658C16.4662 32.979 16.4813 32.9949 16.4966 33.0107C16.528 33.0432 16.5727 33.0888 16.6294 33.1445C16.7437 33.2569 16.9115 33.4181 17.1235 33.6211C17.5479 34.0274 18.1543 34.6031 18.8823 35.291C20.3388 36.6674 22.2834 38.4957 24.23 40.3232C26.1765 42.1508 28.126 43.9784 29.5933 45.3535C30.3268 46.041 30.9396 46.6156 31.3716 47.0205C31.5876 47.2229 31.7586 47.3826 31.8765 47.4932C31.9353 47.5484 31.9808 47.5915 32.0122 47.6211C32.0467 47.6535 32.0588 47.6648 32.0571 47.6631C32.2268 47.8353 32.3574 48.0047 32.4409 48.1592C32.5258 48.3162 32.5519 48.4393 32.5444 48.5264C32.538 48.6007 32.5057 48.6709 32.4106 48.7383C32.3073 48.8116 32.1266 48.8822 31.8306 48.9189L1.75342 48.9189C0.808847 48.8215 0.0500212 48.1668 -0.189943 47.3018C-0.294939 37.6404 -0.294939 27.9417 -0.189941 18.2803C0.0478769 17.4582 0.743643 16.8137 1.62158 16.6826L1.80127 16.6631L31.8354 16.6631C31.9838 16.6766 32.165 16.7182 32.311 16.7891C32.4645 16.8636 32.527 16.9431 32.5415 17.0078L32.5415 17.0107Z" stroke="#FBFDFC" stroke-width="0.538012"/>
<path d="M157.691 79.6123C157.666 79.4937 157.699 79.3476 157.798 79.1748C157.896 79.0047 158.039 78.8409 158.176 78.7012L158.178 78.6992C158.181 78.6965 158.235 78.6458 158.347 78.54C158.459 78.4347 158.62 78.2818 158.826 78.0889C159.236 77.7029 159.821 77.1553 160.522 76.4971C161.924 75.1805 163.796 73.4234 165.691 71.6445C169.479 68.0881 173.363 64.4382 173.773 64.042L173.836 63.9814L173.851 63.8945C173.855 63.8523 173.848 63.7869 173.841 63.7637C173.836 63.7498 173.826 63.7276 173.822 63.7188C173.813 63.7023 173.804 63.6897 173.8 63.6846C173.792 63.673 173.783 63.6632 173.778 63.6572C173.766 63.644 173.751 63.6281 173.736 63.6123C173.704 63.5799 173.66 63.5343 173.603 63.4785C173.489 63.3662 173.321 63.2049 173.109 63.002C172.685 62.5957 172.078 62.02 171.35 61.332C169.894 59.9556 167.949 58.1274 166.002 56.2998C164.056 54.4723 162.106 52.6446 160.639 51.2695C159.906 50.5821 159.293 50.0075 158.861 49.6025C158.645 49.4001 158.474 49.2405 158.356 49.1299C158.297 49.0747 158.252 49.0315 158.22 49.002C158.186 48.9695 158.174 48.9583 158.175 48.96C158.006 48.7878 157.875 48.6184 157.792 48.4639C157.707 48.3068 157.681 48.1837 157.688 48.0967C157.694 48.0223 157.727 47.9522 157.822 47.8848C157.925 47.8115 158.106 47.7409 158.402 47.7041L188.479 47.7041C189.424 47.8015 190.182 48.4563 190.422 49.3213C190.527 58.9827 190.527 68.6814 190.422 78.3428C190.185 79.1648 189.489 79.8093 188.611 79.9404L188.431 79.96L158.397 79.96C158.249 79.9464 158.067 79.9048 157.921 79.834C157.768 79.7595 157.705 79.6799 157.691 79.6152L157.691 79.6123Z" stroke="#FBFDFC" stroke-width="0.538012"/>
<path d="M27.1626 45.1729C27.1862 45.285 27.1546 45.4243 27.0591 45.5908C26.9651 45.7547 26.8272 45.9127 26.6948 46.0479L26.6929 46.0498C26.6927 46.0498 26.6416 46.0987 26.5298 46.2041C26.4216 46.3061 26.2646 46.4537 26.0659 46.6406C25.6684 47.0146 25.1029 47.5459 24.4243 48.1836C23.0673 49.459 21.2558 51.1606 19.4224 52.8838C15.7567 56.3291 11.9976 59.8652 11.6011 60.249L11.5376 60.3096L11.5229 60.3955C11.519 60.4376 11.5262 60.5041 11.5327 60.5273C11.5378 60.5413 11.5477 60.5635 11.5522 60.5723C11.5612 60.5887 11.57 60.6014 11.5737 60.6064C11.5823 60.618 11.5911 60.628 11.5962 60.6338C11.6075 60.6466 11.6215 60.6615 11.6362 60.6768C11.6667 60.7083 11.711 60.7524 11.7661 60.8066C11.8768 60.9155 12.0386 61.0721 12.2437 61.2686C12.6544 61.6622 13.2412 62.2202 13.9458 62.8867C15.3553 64.2201 17.2369 65.9904 19.1206 67.7607C21.0043 69.5312 22.891 71.3016 24.311 72.6338C25.0211 73.2999 25.6146 73.8567 26.0327 74.249C26.2417 74.4451 26.407 74.5999 26.521 74.707C26.6331 74.8123 26.6903 74.865 26.6958 74.8701L26.6948 74.8711C26.8589 75.0377 26.9845 75.2016 27.0649 75.3506C27.1466 75.5018 27.1716 75.619 27.1645 75.7012C27.1585 75.7707 27.1286 75.8364 27.0386 75.9004C26.9404 75.9701 26.7676 76.0377 26.4829 76.0732L-2.63037 76.0732C-3.53717 75.9768 -4.2655 75.3467 -4.49658 74.5146C-4.59817 65.1569 -4.59814 55.763 -4.49658 46.4053C-4.26785 45.6112 -3.59773 44.9882 -2.75146 44.8613L-2.57764 44.8428L26.4868 44.8428C26.6296 44.8558 26.8038 44.8958 26.9438 44.9639C27.0913 45.0355 27.1493 45.1109 27.1626 45.1699L27.1626 45.1729Z" stroke="#FBFDFC" stroke-width="0.538012"/>
<path d="M163.07 51.4463C163.046 51.3342 163.078 51.1949 163.173 51.0283C163.267 50.8645 163.405 50.7064 163.538 50.5713L163.54 50.5693C163.54 50.5694 163.591 50.5204 163.703 50.415C163.811 50.313 163.968 50.1654 164.167 49.9785C164.564 49.6045 165.13 49.0733 165.808 48.4355C167.165 47.1602 168.977 45.4585 170.81 43.7354C174.476 40.2901 178.235 36.7539 178.631 36.3701L178.695 36.3096L178.709 36.2236C178.713 36.1815 178.706 36.115 178.7 36.0918C178.695 36.0778 178.685 36.0557 178.68 36.0469C178.671 36.0304 178.662 36.0178 178.659 36.0127C178.65 36.0011 178.641 35.9911 178.636 35.9854C178.625 35.9725 178.611 35.9576 178.596 35.9424C178.566 35.9108 178.521 35.8667 178.466 35.8125C178.356 35.7036 178.194 35.5471 177.989 35.3506C177.578 34.9569 176.991 34.399 176.287 33.7324C174.877 32.3991 172.995 30.6288 171.112 28.8584C169.228 27.0879 167.341 25.3175 165.921 23.9854C165.211 23.3192 164.618 22.7624 164.2 22.3701C163.991 22.1741 163.825 22.0192 163.711 21.9121C163.599 21.8068 163.542 21.7542 163.537 21.749L163.538 21.748C163.374 21.5815 163.248 21.4175 163.167 21.2686C163.086 21.1173 163.061 21.0001 163.068 20.918C163.074 20.8484 163.104 20.7827 163.194 20.7188C163.292 20.649 163.465 20.5814 163.75 20.5459L192.863 20.5459C193.77 20.6423 194.498 21.2725 194.729 22.1045C194.831 31.4622 194.831 40.8561 194.729 50.2139C194.5 51.0079 193.83 51.631 192.984 51.7578L192.81 51.7764L163.746 51.7764C163.603 51.7633 163.429 51.7233 163.289 51.6553C163.141 51.5837 163.083 51.5083 163.07 51.4492L163.07 51.4463Z" stroke="#FBFDFC" stroke-width="0.538012"/>
<path d="M46.6178 63.5528C46.957 63.8803 47.0896 64.2122 47.1032 64.5451C47.1173 64.8883 47.0052 65.2568 46.8101 65.6455C46.6155 66.0332 46.3484 66.4214 46.0727 66.8051C45.807 67.1748 45.5284 67.5482 45.3231 67.89L45.3223 67.8905C31.9401 86.5709 18.7754 105.382 5.35588 124.027C4.56903 124.792 3.78755 125.197 3.06975 125.213C2.36964 125.229 1.65517 124.876 0.985817 123.954L-30.2991 72.2704C-30.5921 71.7864 -30.801 71.2602 -30.8835 70.7191L-30.9115 70.4862C-30.9392 70.1621 -30.9188 69.8544 -30.8493 69.6073L-30.8488 69.6081C-30.6896 69.0638 -30.2613 68.6778 -29.6945 68.41C-29.129 68.1429 -28.4519 68.0071 -27.8525 67.9541C-19.2197 67.4545 -10.5931 66.8538 -1.96928 66.2287L15.2764 64.968C23.8989 64.3435 32.522 63.7449 41.1502 63.2477C41.8197 63.2089 42.9822 63.0843 44.1159 63.0787C44.6796 63.0759 45.2202 63.1031 45.6705 63.1824C46.074 63.2535 46.3683 63.3601 46.5481 63.4942L46.6178 63.5528Z" stroke="#FBFDFC" stroke-width="0.538012"/>
<path d="M143.615 33.0722C143.275 32.7447 143.143 32.4128 143.129 32.0799C143.115 31.7367 143.227 31.3682 143.422 30.9795C143.617 30.5918 143.884 30.2036 144.16 29.8199C144.425 29.4502 144.704 29.0768 144.909 28.735L144.91 28.7345C158.292 10.0541 171.457 -8.75693 184.877 -27.4022C185.663 -28.167 186.445 -28.5722 187.163 -28.5883C187.863 -28.604 188.577 -28.2506 189.247 -27.3294L220.532 24.3546C220.825 24.8386 221.033 25.3648 221.116 25.9059L221.144 26.1388C221.172 26.4629 221.151 26.7706 221.082 27.0177L221.081 27.0169C220.922 27.5612 220.494 27.9472 219.927 28.215C219.361 28.4821 218.684 28.6179 218.085 28.6709C209.452 29.1705 200.826 29.7712 192.202 30.3963L174.956 31.657C166.334 32.2815 157.71 32.8801 149.082 33.3773C148.413 33.4161 147.25 33.5407 146.117 33.5463C145.553 33.5491 145.012 33.5219 144.562 33.4426C144.158 33.3715 143.864 33.2649 143.684 33.1308L143.615 33.0722Z" stroke="#FBFDFC" stroke-width="0.538012"/>
<path d="M94.718 23.0726C94.9924 23.0199 95.2796 23.2333 95.469 23.4026C95.5179 23.4456 104.489 32.1652 105.002 32.6485C105.056 32.6571 114.509 23.4468 114.558 23.4026C115.038 22.9708 115.57 22.8641 115.672 23.6381V41.4859C115.603 42.1189 115.117 42.6304 114.473 42.785C108.174 42.8475 101.851 42.8475 95.5527 42.785C94.9048 42.623 94.4012 42.1041 94.3535 41.4564V23.6381C94.3728 23.4321 94.4772 23.1192 94.7167 23.0726H94.718Z" fill="#FBFDFC"/>
<path d="M72.804 42.5473C72.5219 42.2737 72.6366 41.8211 72.7873 41.5095C75.7588 35.8297 78.5359 30.0567 81.5088 24.3782C81.6762 24.058 82.0626 23.1711 82.4297 23.0791C83.0454 22.9257 83.2399 23.6716 83.4769 24.0543C86.4562 29.9414 89.5037 35.8003 92.4689 41.6923C92.6518 42.3093 92.4637 42.7681 91.7463 42.8233H73.6413C73.4378 42.8233 73.233 42.7877 73.0488 42.7043C72.9534 42.6614 72.8671 42.6074 72.804 42.5473Z" fill="#FBFDFC"/>
<path d="M70.9407 54.3802H74.6207L77.1521 60.5491H77.2798L79.8111 54.3802H83.4912V65.2715H80.5982V58.9749H80.5131L78.0881 65.1864H76.3438L73.9188 58.9324H73.8337V65.2715H70.9407V54.3802ZM91.338 54.3802H94.2948V61.3574C94.2948 62.187 94.0963 62.905 93.6992 63.5112C93.3057 64.1139 92.7561 64.5801 92.0506 64.9099C91.3451 65.236 90.5261 65.3991 89.5937 65.3991C88.6541 65.3991 87.8316 65.236 87.1261 64.9099C86.4206 64.5801 85.871 64.1139 85.4775 63.5112C85.0875 62.905 84.8925 62.187 84.8925 61.3574V54.3802H87.8494V61.1021C87.8494 61.439 87.9238 61.7403 88.0727 62.0062C88.2216 62.2686 88.4272 62.4742 88.6896 62.6231C88.9555 62.772 89.2569 62.8465 89.5937 62.8465C89.934 62.8465 90.2354 62.772 90.4977 62.6231C90.7601 62.4742 90.9657 62.2686 91.1146 62.0062C91.2635 61.7403 91.338 61.439 91.338 61.1021V54.3802ZM101.571 57.7837C101.543 57.4292 101.41 57.1526 101.172 56.9541C100.938 56.7555 100.582 56.6563 100.103 56.6563C99.7985 56.6563 99.5486 56.6935 99.3536 56.7679C99.1621 56.8389 99.0203 56.9364 98.9281 57.0604C98.836 57.1845 98.7881 57.3263 98.7846 57.4859C98.7775 57.6171 98.8005 57.7358 98.8537 57.8422C98.9104 57.945 98.9991 58.039 99.1196 58.124C99.2401 58.2056 99.3944 58.28 99.5823 58.3474C99.7702 58.4148 99.9935 58.475 100.252 58.5282L101.146 58.7197C101.748 58.8473 102.264 59.0157 102.693 59.2249C103.122 59.4341 103.473 59.6805 103.746 59.9641C104.019 60.2442 104.22 60.5597 104.347 60.9107C104.478 61.2617 104.546 61.6446 104.549 62.0594C104.546 62.7756 104.367 63.3818 104.012 63.8782C103.658 64.3745 103.151 64.7521 102.491 65.0109C101.835 65.2697 101.046 65.3991 100.125 65.3991C99.1781 65.3991 98.352 65.2591 97.6465 64.979C96.9445 64.6989 96.3985 64.2681 96.0085 63.6867C95.6221 63.1017 95.4271 62.3537 95.4236 61.4425H98.2315C98.2492 61.7758 98.3325 62.0558 98.4814 62.2827C98.6303 62.5097 98.8395 62.6816 99.109 62.7986C99.3819 62.9156 99.7063 62.9741 100.082 62.9741C100.398 62.9741 100.662 62.9351 100.875 62.8571C101.087 62.7791 101.249 62.671 101.358 62.5327C101.468 62.3944 101.525 62.2367 101.529 62.0594C101.525 61.8928 101.47 61.7474 101.364 61.6233C101.261 61.4957 101.091 61.3822 100.853 61.283C100.616 61.1801 100.295 61.0844 99.8907 60.9958L98.8058 60.7618C97.8415 60.5526 97.081 60.2034 96.5244 59.7141C95.9713 59.2213 95.6966 58.5495 95.7001 57.6986C95.6966 57.0073 95.8809 56.4028 96.2532 55.8852C96.629 55.364 97.1484 54.958 97.8114 54.6673C98.4779 54.3766 99.2419 54.2312 100.103 54.2312C100.983 54.2312 101.743 54.3784 102.385 54.6726C103.027 54.9669 103.521 55.3817 103.869 55.9171C104.22 56.4489 104.397 57.0711 104.4 57.7837H101.571ZM105.674 65.2715V54.3802H113.523V56.7626H108.631V58.6346H113.119V61.0171H108.631V62.889H113.502V65.2715H105.674ZM117.947 54.3802V65.2715H114.99V54.3802H117.947Z" fill="#FBFDFC"/>
<path d="M71.3702 52.8066H70.1092L71.5299 48.5025H73.1271L74.5478 52.8066H73.2868L72.3453 49.6879H72.3117L71.3702 52.8066ZM71.1348 51.1085H73.5054V51.9828H71.1348V51.1085ZM74.9623 52.8066V48.5025H76.8286C77.1564 48.5025 77.4317 48.5467 77.6545 48.6349C77.8787 48.7232 78.0475 48.8479 78.161 49.009C78.2759 49.1702 78.3333 49.36 78.3333 49.5786C78.3333 49.7369 78.2983 49.8812 78.2282 50.0115C78.1596 50.1418 78.0629 50.2511 77.9382 50.3394C77.8135 50.4262 77.6678 50.4865 77.5011 50.5201V50.5621C77.686 50.5691 77.8541 50.6161 78.0055 50.7029C78.1568 50.7884 78.2773 50.9068 78.3669 51.0581C78.4566 51.208 78.5014 51.3846 78.5014 51.5877C78.5014 51.8231 78.4398 52.0325 78.3165 52.2161C78.1946 52.3996 78.0209 52.5439 77.7953 52.649C77.5697 52.7541 77.3007 52.8066 76.9883 52.8066H74.9623ZM76.1308 51.8735H76.6772C76.8734 51.8735 77.0205 51.8371 77.1186 51.7642C77.2167 51.69 77.2657 51.5807 77.2657 51.4364C77.2657 51.3355 77.2426 51.25 77.1963 51.18C77.1501 51.1099 77.0843 51.0567 76.9988 51.0203C76.9147 50.9838 76.8132 50.9656 76.6941 50.9656H76.1308V51.8735ZM76.1308 50.2427H76.61C76.7123 50.2427 76.8026 50.2266 76.8811 50.1943C76.9596 50.1621 77.0205 50.1159 77.0639 50.0556C77.1088 49.994 77.1312 49.919 77.1312 49.8308C77.1312 49.6977 77.0836 49.5961 76.9883 49.526C76.893 49.4546 76.7725 49.4188 76.6268 49.4188H76.1308V50.2427ZM78.9155 52.8066V48.5025H80.7817C81.1095 48.5025 81.3849 48.5467 81.6076 48.6349C81.8318 48.7232 82.0006 48.8479 82.1141 49.009C82.229 49.1702 82.2864 49.36 82.2864 49.5786C82.2864 49.7369 82.2514 49.8812 82.1814 50.0115C82.1127 50.1418 82.016 50.2511 81.8913 50.3394C81.7666 50.4262 81.6209 50.4865 81.4542 50.5201V50.5621C81.6391 50.5691 81.8073 50.6161 81.9586 50.7029C82.1099 50.7884 82.2304 50.9068 82.3201 51.0581C82.4097 51.208 82.4546 51.3846 82.4546 51.5877C82.4546 51.8231 82.3929 52.0325 82.2696 52.2161C82.1477 52.3996 81.974 52.5439 81.7484 52.649C81.5229 52.7541 81.2539 52.8066 80.9414 52.8066H78.9155ZM80.084 51.8735H80.6304C80.8265 51.8735 80.9736 51.8371 81.0717 51.7642C81.1698 51.69 81.2188 51.5807 81.2188 51.4364C81.2188 51.3355 81.1957 51.25 81.1495 51.18C81.1032 51.1099 81.0374 51.0567 80.9519 51.0203C80.8679 50.9838 80.7663 50.9656 80.6472 50.9656H80.084V51.8735ZM80.084 50.2427H80.5631C80.6654 50.2427 80.7558 50.2266 80.8342 50.1943C80.9127 50.1621 80.9736 50.1159 81.0171 50.0556C81.0619 49.994 81.0843 49.919 81.0843 49.8308C81.0843 49.6977 81.0367 49.5961 80.9414 49.526C80.8461 49.4546 80.7256 49.4188 80.5799 49.4188H80.084V50.2427ZM87.0382 50.6546C87.0382 51.1338 86.945 51.538 86.7587 51.8672C86.5723 52.1951 86.3208 52.4438 86.0042 52.6133C85.6875 52.7814 85.3345 52.8655 84.945 52.8655C84.5527 52.8655 84.1982 52.7807 83.8816 52.6112C83.5663 52.4403 83.3155 52.1909 83.1292 51.863C82.9442 51.5338 82.8518 51.131 82.8518 50.6546C82.8518 50.1754 82.9442 49.7719 83.1292 49.4441C83.3155 49.1148 83.5663 48.8661 83.8816 48.698C84.1982 48.5285 84.5527 48.4437 84.945 48.4437C85.3345 48.4437 85.6875 48.5285 86.0042 48.698C86.3208 48.8661 86.5723 49.1148 86.7587 49.4441C86.945 49.7719 87.0382 50.1754 87.0382 50.6546ZM85.8361 50.6546C85.8361 50.3968 85.8017 50.1796 85.7331 50.0031C85.6658 49.8252 85.5657 49.6907 85.4325 49.5996C85.3008 49.5071 85.1383 49.4609 84.945 49.4609C84.7516 49.4609 84.5884 49.5071 84.4553 49.5996C84.3236 49.6907 84.2234 49.8252 84.1548 50.0031C84.0875 50.1796 84.0539 50.3968 84.0539 50.6546C84.0539 50.9124 84.0875 51.1303 84.1548 51.3082C84.2234 51.4847 84.3236 51.6192 84.4553 51.7117C84.5884 51.8028 84.7516 51.8483 84.945 51.8483C85.1383 51.8483 85.3008 51.8028 85.4325 51.7117C85.5657 51.6192 85.6658 51.4847 85.7331 51.3082C85.8017 51.1303 85.8361 50.9124 85.8361 50.6546ZM91.3029 48.5025V52.8066H90.3277L88.7725 50.5453H88.7473V52.8066H87.5788V48.5025H88.5708L90.1007 50.7555H90.1344V48.5025H91.3029ZM92.9736 52.8066H91.7127L93.1334 48.5025H94.7306L96.1513 52.8066H94.8903L93.9488 49.6879H93.9152L92.9736 52.8066ZM92.7383 51.1085H95.1089V51.9828H92.7383V51.1085ZM96.5658 48.5025H98.0201L99.0205 50.9404H99.0709L100.071 48.5025H101.526V52.8066H100.382V50.3183H100.349L99.3904 52.773H98.7011L97.7427 50.3015H97.7091V52.8066H96.5658V48.5025ZM102.079 52.8066V48.5025H105.181V49.4441H103.248V50.1838H105.022V51.1254H103.248V51.8651H105.173V52.8066H102.079ZM109.485 48.5025V52.8066H108.51L106.955 50.5453H106.929V52.8066H105.761V48.5025H106.753L108.283 50.7555H108.316V48.5025H109.485ZM109.92 49.4441V48.5025H113.661V49.4441H112.366V52.8066H111.215V49.4441H109.92ZM118.068 50.6546C118.068 51.1338 117.975 51.538 117.788 51.8672C117.602 52.1951 117.351 52.4438 117.034 52.6133C116.717 52.7814 116.364 52.8655 115.975 52.8655C115.582 52.8655 115.228 52.7807 114.911 52.6112C114.596 52.4403 114.345 52.1909 114.159 51.863C113.974 51.5338 113.881 51.131 113.881 50.6546C113.881 50.1754 113.974 49.7719 114.159 49.4441C114.345 49.1148 114.596 48.8661 114.911 48.698C115.228 48.5285 115.582 48.4437 115.975 48.4437C116.364 48.4437 116.717 48.5285 117.034 48.698C117.351 48.8661 117.602 49.1148 117.788 49.4441C117.975 49.7719 118.068 50.1754 118.068 50.6546ZM116.866 50.6546C116.866 50.3968 116.831 50.1796 116.763 50.0031C116.696 49.8252 116.595 49.6907 116.462 49.5996C116.331 49.5071 116.168 49.4609 115.975 49.4609C115.781 49.4609 115.618 49.5071 115.485 49.5996C115.353 49.6907 115.253 49.8252 115.184 50.0031C115.117 50.1796 115.084 50.3968 115.084 50.6546C115.084 50.9124 115.117 51.1303 115.184 51.3082C115.253 51.4847 115.353 51.6192 115.485 51.7117C115.618 51.8028 115.781 51.8483 115.975 51.8483C116.168 51.8483 116.331 51.8028 116.462 51.7117C116.595 51.6192 116.696 51.4847 116.763 51.3082C116.831 51.1303 116.866 50.9124 116.866 50.6546Z" fill="#FBFDFC"/>
<path d="M76.1767 81.0141H77.9468V81.707H75.3181V76.4722H76.1767V81.0141ZM81.0526 81.7598C80.5655 81.7598 80.1161 81.6468 79.7043 81.4208C79.2976 81.1898 78.9737 80.871 78.7327 80.4642C78.4967 80.0525 78.3787 79.5905 78.3787 79.0783C78.3787 78.5661 78.4967 78.1067 78.7327 77.6999C78.9737 77.2932 79.2976 76.9768 79.7043 76.7509C80.1161 76.5199 80.5655 76.4044 81.0526 76.4044C81.5447 76.4044 81.9941 76.5199 82.4008 76.7509C82.8126 76.9768 83.1365 77.2932 83.3725 77.6999C83.6085 78.1067 83.7265 78.5661 83.7265 79.0783C83.7265 79.5905 83.6085 80.0525 83.3725 80.4642C83.1365 80.871 82.8126 81.1898 82.4008 81.4208C81.9941 81.6468 81.5447 81.7598 81.0526 81.7598ZM81.0526 81.0141C81.3991 81.0141 81.7079 80.9362 81.979 80.7806C82.2502 80.6199 82.4611 80.3939 82.6117 80.1027C82.7674 79.8064 82.8452 79.465 82.8452 79.0783C82.8452 78.6917 82.7674 78.3527 82.6117 78.0615C82.4611 77.7702 82.2502 77.5468 81.979 77.3911C81.7079 77.2354 81.3991 77.1576 81.0526 77.1576C80.7061 77.1576 80.3973 77.2354 80.1261 77.3911C79.855 77.5468 79.6416 77.7702 79.4859 78.0615C79.3352 78.3527 79.2599 78.6917 79.2599 79.0783C79.2599 79.465 79.3352 79.8064 79.4859 80.1027C79.6416 80.3939 79.855 80.6199 80.1261 80.7806C80.3973 80.9362 80.7061 81.0141 81.0526 81.0141ZM90.085 76.4722V81.707H89.2263V78.1217L87.6295 81.707H87.0345L85.4301 78.1217V81.707H84.5715V76.4722H85.4979L87.3358 80.5772L89.1661 76.4722H90.085ZM94.0156 79.018C94.2968 79.0683 94.5353 79.2164 94.7311 79.4624C94.9269 79.7085 95.0249 79.9872 95.0249 80.2985C95.0249 80.5647 94.9546 80.8057 94.814 81.0216C94.6784 81.2325 94.48 81.4007 94.2189 81.5263C93.9578 81.6468 93.654 81.707 93.3075 81.707H91.2136V76.4722H93.2096C93.5661 76.4722 93.8724 76.5324 94.1285 76.6529C94.3846 76.7735 94.578 76.9367 94.7085 77.1425C94.8391 77.3434 94.9043 77.5694 94.9043 77.8204C94.9043 78.1217 94.824 78.3728 94.6633 78.5737C94.5026 78.7745 94.2867 78.9226 94.0156 79.018ZM92.0723 78.6716H93.1343C93.4155 78.6716 93.6339 78.6088 93.7896 78.4833C93.9503 78.3527 94.0306 78.1669 94.0306 77.9259C94.0306 77.6899 93.9503 77.5066 93.7896 77.376C93.6339 77.2405 93.4155 77.1727 93.1343 77.1727H92.0723V78.6716ZM93.2322 81.0065C93.5234 81.0065 93.7519 80.9362 93.9176 80.7956C94.0833 80.655 94.1662 80.4592 94.1662 80.2081C94.1662 79.952 94.0783 79.7487 93.9026 79.598C93.7268 79.4474 93.4933 79.3721 93.2021 79.3721H92.0723V81.0065H93.2322ZM99.1139 80.6375H96.9221L96.5455 81.707H95.6491L97.5247 76.4646H98.5189L100.394 81.707H99.4906L99.1139 80.6375ZM98.8729 79.937L98.0218 77.5041L97.1631 79.937H98.8729ZM103.929 81.707L102.724 79.6131H102.069V81.707H101.21V76.4722H103.018C103.419 76.4722 103.758 76.5425 104.034 76.6831C104.316 76.8237 104.524 77.012 104.66 77.248C104.8 77.484 104.871 77.7476 104.871 78.0389C104.871 78.3803 104.77 78.6917 104.569 78.9729C104.373 79.249 104.07 79.4373 103.658 79.5378L104.953 81.707H103.929ZM102.069 78.9277H103.018C103.339 78.9277 103.58 78.8473 103.741 78.6866C103.906 78.5259 103.989 78.31 103.989 78.0389C103.989 77.7677 103.909 77.5568 103.748 77.4062C103.588 77.2505 103.344 77.1727 103.018 77.1727H102.069V78.9277ZM107.679 76.4722C108.236 76.4722 108.723 76.5801 109.14 76.7961C109.562 77.007 109.886 77.3133 110.112 77.715C110.343 78.1117 110.458 78.5762 110.458 79.1084C110.458 79.6407 110.343 80.1027 110.112 80.4944C109.886 80.886 109.562 81.1873 109.14 81.3982C108.723 81.6041 108.236 81.707 107.679 81.707H105.969V76.4722H107.679ZM107.679 81.0065C108.291 81.0065 108.761 80.8408 109.087 80.5094C109.414 80.178 109.577 79.711 109.577 79.1084C109.577 78.5008 109.414 78.0263 109.087 77.6849C108.761 77.3434 108.291 77.1727 107.679 77.1727H106.828V81.0065H107.679ZM112.168 76.4722V81.707H111.309V76.4722H112.168ZM116.451 80.6375H114.259L113.883 81.707H112.986L114.862 76.4646H115.856L117.732 81.707H116.828L116.451 80.6375ZM116.21 79.937L115.359 77.5041L114.5 79.937H116.21Z" fill="#FBFDFC"/>
</g>
</g>
<defs>
<filter id="filter0_d_1398_985" x="-0.000191212" y="0" width="188.304" height="101.146" filterUnits="userSpaceOnUse" color-interpolation-filters="sRGB">
<feFlood flood-opacity="0" result="BackgroundImageFix"/>
<feColorMatrix in="SourceAlpha" type="matrix" values="0 0 0 0 0 0 0 0 0 0 0 0 0 0 0 0 0 0 127 0" result="hardAlpha"/>
<feOffset dy="2.15205"/>
<feGaussianBlur stdDeviation="1.07602"/>
<feComposite in2="hardAlpha" operator="out"/>
<feColorMatrix type="matrix" values="0 0 0 0 0 0 0 0 0 0 0 0 0 0 0 0 0 0 0.25 0"/>
<feBlend mode="normal" in2="BackgroundImageFix" result="effect1_dropShadow_1398_985"/>
<feBlend mode="normal" in="SourceGraphic" in2="effect1_dropShadow_1398_985" result="shape"/>
</filter>
<clipPath id="clip0_1398_985">
<rect x="2.15186" width="184" height="96.8421" rx="16.0704" fill="white"/>
</clipPath>
</defs>
</svg>
